<svg xmlns="http://www.w3.org/2000/svg" viewBox="0 0 1000 1000" version="1.1" xmlns:xlink="http://www.w3.org/1999/xlink">
  <rect width="1000" height="1000" rx="250" ry="250" fill="#555"></rect>
  <svg xmlns="http://www.w3.org/2000/svg" xmlns:xlink="http://www.w3.org/1999/xlink" xmlns:svgjs="http://svgjs.com/svgjs" transform="matrix(2 0 0 2 100.154 100.071)" viewBox="0 0 400 400">
    <svg xmlns="http://www.w3.org/2000/svg" xmlns:xlink="http://www.w3.org/1999/xlink" viewBox="0 0 400 400">
      <g fill-rule="evenodd">
        <path d="M110.817 5.976c-.461.647-1.184 1.287-1.608 1.421-.423.134-1.151.863-1.619 1.618-.467.756-1.351 1.671-1.965 2.034-.614.363-1.417 1.169-1.785 1.791-.368.622-1.187 1.438-1.82 1.812-.634.374-1.34 1.093-1.57 1.598-.23.505-1.145 1.399-2.034 1.987-.889.588-1.616 1.317-1.616 1.62 0 .303-.706 1.044-1.569 1.647s-1.757 1.495-1.986 1.983c-.229.487-1.045 1.297-1.814 1.8-.769.502-1.617 1.318-1.883 1.814-.266.495-1.072 1.247-1.791 1.671-.719.425-1.593 1.324-1.942 2-.35.675-.796 1.228-.992 1.228-.29 0-3.93 3.517-6.823 6.593-.33.35-1.86 1.871-3.4 3.379-1.54 1.508-3.186 3.166-3.657 3.685a44.153 44.153 0 0 1-2 2.019c-1.278 1.203-2.047 1.968-3.743 3.724-.637.66-1.441 1.47-1.786 1.8-.992.948-6.125 6.116-6.953 7a16.11 16.11 0 0 1-1.519 1.4c-.423.33-1.073 1.081-1.445 1.67-.372.588-1.027 1.181-1.457 1.317-.43.137-1.136.849-1.57 1.584-.433.734-1.331 1.656-1.995 2.048-.664.392-1.401 1.139-1.638 1.659-.237.52-1.054 1.313-1.816 1.763-.762.449-1.499 1.174-1.637 1.61-.139.436-1.002 1.336-1.918 1.999-.916.664-1.795 1.553-1.952 1.976-.158.423-.851 1.112-1.54 1.531-.69.42-1.596 1.325-2.013 2.011-.418.687-1.165 1.438-1.66 1.671-.496.232-1.394 1.129-1.997 1.992-.603.863-1.34 1.569-1.638 1.569-2.482 0-2.537 4.901-.069 6.178.912.471 1.856 1.362 2.2 2.073.759 1.57 3.849 4.632 5.309 5.261.608.262 1.324.974 1.59 1.582.624 1.428 4.182 4.986 5.61 5.61.608.266 1.322.982 1.586 1.59.621 1.429 3.803 4.624 5.456 5.479.708.366 1.501 1.152 1.764 1.746.641 1.454 3.704 4.539 5.244 5.281.684.33 1.535 1.183 1.891 1.896.805 1.611 3.711 4.504 5.332 5.307.669.331 1.487 1.15 1.818 1.821.761 1.537 3.825 4.586 5.403 5.376.66.33 1.478 1.155 1.817 1.834.738 1.476 3.811 4.495 5.547 5.449.684.376 1.412 1.127 1.617 1.668.484 1.271 3.797 4.584 5.068 5.068.541.205 1.292.936 1.668 1.623.857 1.566 4.764 5.558 5.439 5.558.606 0 2.244 1.672 2.244 2.289 0 .687 3.599 4.246 4.966 4.911.679.33 1.507 1.14 1.841 1.8.819 1.619 4.069 4.897 5.331 5.376.561.214 1.34.891 1.732 1.506.391.615.896 1.25 1.121 1.412.493.354 253.768.403 255.909.049 1.796-.297 1.895-.718.356-1.514-.629-.325-1.366-1.128-1.637-1.784-.297-.716-.957-1.354-1.653-1.597-.715-.249-1.413-.939-1.825-1.804-.374-.784-1.161-1.604-1.79-1.864-.617-.256-1.353-1-1.636-1.654-.3-.692-1.056-1.417-1.811-1.735-.79-.334-1.553-1.086-1.955-1.93-.363-.761-1.085-1.577-1.605-1.814-.52-.237-1.295-1.004-1.721-1.705-.426-.701-1.332-1.508-2.014-1.795-.757-.318-1.454-1.032-1.793-1.834-.328-.779-1.044-1.526-1.761-1.836-.665-.288-1.436-1.037-1.714-1.665-.278-.628-1.108-1.43-1.845-1.781a4.009 4.009 0 0 1-1.911-2.006c-.314-.752-.954-1.488-1.423-1.637-.678-.215-3.985-3.306-6.562-6.135-1.178-1.293-5.558-5.253-5.809-5.253-.162 0-.518-.54-.791-1.2-.273-.66-.678-1.2-.898-1.2-.749 0-9.902-9.198-9.902-9.95 0-.248-.23-.45-.511-.45-.502 0-2.072-1.368-3.728-3.248-.462-.523-1.992-2.061-3.4-3.417-1.409-1.355-3.04-2.975-3.626-3.6a67.478 67.478 0 0 0-2.1-2.127c-.569-.545-1.035-1.187-1.035-1.426 0-.238-.601-.721-1.336-1.071-.735-.35-1.55-1.149-1.811-1.774-.261-.625-1.106-1.548-1.878-2.05-.773-.503-1.595-1.333-1.829-1.845-.233-.512-1.016-1.213-1.739-1.558-.723-.345-1.555-1.169-1.848-1.831-.293-.662-.931-1.385-1.418-1.607-.487-.222-1.301-.965-1.807-1.65-.507-.686-1.489-1.597-2.181-2.025-.692-.428-1.479-1.31-1.749-1.961s-.832-1.292-1.251-1.425c-.418-.133-1.329-.949-2.024-1.813-.694-.865-1.487-1.572-1.76-1.572-.274 0-.962-.585-1.53-1.3-.567-.715-1.331-1.57-1.696-1.9-1.731-1.562-26.721-26.322-33.877-33.565-13.885-14.056-15.209-15.416-17.463-17.942-1.208-1.354-2.587-2.67-3.063-2.925-.476-.255-1.186-1.058-1.577-1.785-.392-.728-1.134-1.515-1.649-1.75-.515-.234-1.284-1.013-1.709-1.73-.424-.717-1.308-1.538-1.965-1.826-.656-.288-1.424-1.044-1.706-1.68-.281-.636-.947-1.39-1.48-1.675-.532-.285-1.394-1.194-1.916-2.02-.521-.826-1.182-1.502-1.468-1.502-.527 0-2.67-2.017-2.67-2.513 0-.149-1.01-1.264-2.244-2.479L201.112 4.8h-89.458l-.837 1.176" fill="#f4443c"></path>
        <path d="M30.669 220.352c-.504 1.097-.24 2.836.49 3.226.449.241 1.009 1.161 1.25 2.056.32 1.187.808 1.839 1.828 2.441.766.452 1.659 1.337 1.984 1.966.326.63 1.126 1.422 1.779 1.759.653.337 1.463 1.147 1.8 1.8.337.653 1.125 1.451 1.75 1.774.626.324 1.358 1.121 1.628 1.773.277.669 1.006 1.398 1.675 1.675.652.27 1.455 1.013 1.785 1.652.331.639 1.15 1.495 1.821 1.904.672.408 1.551 1.284 1.954 1.947s1.238 1.448 1.856 1.744c.618.296 1.366 1.044 1.662 1.662.296.618 1.081 1.453 1.744 1.856s1.547 1.295 1.965 1.983c.418.687 1.184 1.411 1.702 1.608.517.197 1.323 1.005 1.79 1.796.466.791 1.294 1.608 1.839 1.815.545.207 1.272.921 1.617 1.587.344.666 1.159 1.487 1.812 1.824.653.337 1.463 1.147 1.8 1.8.337.653 1.147 1.463 1.8 1.8.653.337 1.463 1.147 1.8 1.8.337.653 1.147 1.463 1.8 1.8.653.337 1.463 1.147 1.8 1.8.337.653 1.147 1.463 1.8 1.8.653.337 1.463 1.147 1.8 1.8.337.653 1.147 1.463 1.8 1.8.653.337 1.463 1.147 1.8 1.8.337.653 1.147 1.463 1.8 1.8.653.337 1.463 1.147 1.8 1.8.337.653 1.147 1.463 1.8 1.8.653.337 1.463 1.147 1.8 1.8.337.653 1.147 1.463 1.8 1.8.653.337 1.463 1.147 1.8 1.8.337.653 1.14 1.459 1.784 1.792.644.333 1.406 1.088 1.694 1.678.287.59 1.053 1.365 1.701 1.723.649.357 1.468 1.17 1.821 1.807s1.163 1.447 1.8 1.8 1.447 1.163 1.8 1.8 1.172 1.45 1.821 1.807c.648.358 1.406 1.115 1.683 1.684.277.569 1.135 1.407 1.906 1.862.771.455 1.572 1.273 1.779 1.818.207.545.921 1.272 1.587 1.617.666.344 1.477 1.141 1.803 1.771.325.629 1.231 1.522 2.013 1.983.781.461 1.59 1.284 1.797 1.829.207.545.921 1.272 1.587 1.617.666.344 1.487 1.159 1.824 1.812.337.653 1.147 1.463 1.8 1.8.653.337 1.463 1.147 1.8 1.8.337.653 1.147 1.463 1.8 1.8.653.337 1.463 1.147 1.8 1.8.337.653 1.147 1.463 1.8 1.8.653.337 1.463 1.147 1.8 1.8.337.653 1.147 1.463 1.8 1.8.653.337 1.468 1.158 1.812 1.824.345.666 1.072 1.38 1.617 1.587.545.207 1.368 1.016 1.829 1.797.461.782 1.346 1.684 1.968 2.005.621.321 1.366 1.078 1.655 1.682.29.604 1.025 1.337 1.635 1.629.61.293 1.556 1.239 2.102 2.104.545.865 1.258 1.572 1.582 1.572.324 0 1.049.727 1.61 1.615.56.889 1.462 1.817 2.002 2.063.541.247 1.34 1.053 1.776 1.791.436.739 1.238 1.513 1.783 1.72.545.207 1.263.903 1.595 1.546.333.643 1.224 1.534 1.98 1.98.756.446 1.619 1.321 1.918 1.945.299.623 1.037 1.369 1.641 1.659.604.289 1.37 1.053 1.703 1.697.333.644 1.139 1.447 1.792 1.784.653.337 1.463 1.147 1.8 1.8.337.653 1.147 1.463 1.8 1.8.653.337 1.463 1.147 1.8 1.8.337.653 1.147 1.463 1.8 1.8.653.337 1.463 1.147 1.8 1.8.337.653 1.147 1.463 1.8 1.8.653.337 1.463 1.147 1.8 1.8.337.653 1.147 1.463 1.8 1.8.653.337 1.463 1.147 1.8 1.8.337.653 1.147 1.463 1.8 1.8.653.337 1.463 1.147 1.8 1.8.337.653 1.147 1.463 1.8 1.8.653.337 1.463 1.147 1.8 1.8.337.653 1.158 1.468 1.824 1.812.666.345 1.376 1.061 1.578 1.592.202.532 1.094 1.425 1.982 1.986.889.561 1.616 1.286 1.616 1.61 0 .324.727 1.049 1.616 1.61.888.561 1.774 1.438 1.969 1.95.559 1.472-.421 1.44 44.445 1.44h42.764l.703-1.5c.433-.923 1.183-1.712 1.953-2.05.712-.314 1.486-1.088 1.8-1.8.321-.73 1.089-1.487 1.845-1.82.713-.314 1.409-.944 1.548-1.4.371-1.223 1.377-2.23 2.228-2.23.434 0 .942-.46 1.215-1.1.685-1.608 1.536-2.5 2.386-2.5.448 0 .916-.441 1.166-1.099.57-1.499 1.538-2.501 2.419-2.501.46 0 .952-.525 1.323-1.414.405-.97 1.036-1.601 2.006-2.006.778-.325 1.414-.834 1.414-1.131 0-.896 1.604-2.649 2.424-2.649.498 0 .971-.493 1.356-1.413.381-.914 1.038-1.602 1.859-1.946a3.547 3.547 0 0 0 1.801-1.801 3.543 3.543 0 0 1 1.8-1.8 3.547 3.547 0 0 0 1.801-1.801c.344-.821 1.032-1.478 1.946-1.859.888-.371 1.413-.863 1.413-1.323 0-.881 1.002-1.849 2.501-2.419.658-.25 1.099-.718 1.099-1.166 0-.894.993-1.861 2.501-2.434.658-.25 1.099-.718 1.099-1.166 0-.85.892-1.701 2.5-2.386.64-.273 1.1-.781 1.1-1.215 0-.851 1.007-1.857 2.23-2.228.456-.139 1.086-.835 1.4-1.548.333-.756 1.09-1.524 1.82-1.845.712-.314 1.486-1.088 1.8-1.8.321-.73 1.089-1.487 1.845-1.82.713-.314 1.409-.944 1.548-1.4.371-1.223 1.377-2.23 2.229-2.23.448 0 .916-.441 1.166-1.099.573-1.508 1.54-2.501 2.434-2.501.448 0 .916-.441 1.166-1.099.573-1.508 1.54-2.501 2.434-2.501.448 0 .916-.441 1.166-1.099.573-1.508 1.54-2.501 2.434-2.501.448 0 .916-.441 1.166-1.099.57-1.499 1.538-2.501 2.419-2.501.46 0 .952-.525 1.323-1.413.381-.914 1.038-1.602 1.859-1.946a3.547 3.547 0 0 0 1.801-1.801c.326-.775 1.031-1.477 1.816-1.807 3.32-1.396 2.784-7.695-.789-9.275-2.422-1.071-3.123-1.743-4.468-4.278-.725-1.366-1.455-2.011-3.436-3.039-2.262-1.172-2.625-1.538-3.58-3.608-.965-2.09-1.28-2.403-3.401-3.376-2.068-.95-2.489-1.353-3.659-3.503-1.13-2.075-1.654-2.598-3.595-3.583-1.955-.993-2.453-1.494-3.572-3.593-1.128-2.116-1.608-2.595-3.624-3.612-2.037-1.029-2.473-1.469-3.532-3.566-1.064-2.107-1.49-2.535-3.576-3.588-2.032-1.025-2.544-1.523-3.606-3.504-1.025-1.913-1.624-2.516-3.494-3.522-1.792-.964-2.553-1.702-3.691-3.577-1.102-1.816-1.965-2.672-3.737-3.705-1.88-1.097-2.509-1.751-3.426-3.563-.95-1.88-1.483-2.413-3.478-3.48-1.925-1.03-2.602-1.684-3.698-3.571-1.043-1.796-1.827-2.584-3.524-3.542-1.682-.949-2.485-1.75-3.497-3.49-.999-1.716-1.79-2.513-3.294-3.319-2.456-1.317-3.232-2.092-4.137-4.133-.894-2.018-1.296-2.341-4.247-3.428-2.982-1.098-3.795-1.791-3.795-3.24V221.2l-3.3-.075-3.3-.074 3.4-.251 3.4-.251-3.4-.119c-6.913-.241-250.021-.317-250.131-.078m236.502 1.103c.094.084-.176.416-.6.736-1.358 1.027-18.214.866-19.164-.183-.659-.728-1.346-.802-8.562-.925-4.315-.074.255-.055 10.155.042 9.9.097 18.077.245 18.171.33m4.129-.366c-.715.089-1.885.089-2.6 0-.715-.088-.13-.161 1.3-.161 1.43 0 2.015.073 1.3.161" fill="#fbfbfb"></path>
        <path d="M24.855 219.958c-.461.291-.461.379 0 .562.3.119.344.231.099.248-.828.059.075 3.263 1.179 4.181.646.538 1.105 1.42 1.25 2.398.301 2.047.465 2.253 1.792 2.253 1.397 0 1.922.602 2.092 2.402.119 1.252.269 1.411 1.433 1.523.805.078 1.3.344 1.3.7 0 1.815.639 2.575 2.165 2.575 1.605 0 2.126.543 2.302 2.402.119 1.252.269 1.411 1.433 1.523.872.084 1.32.348 1.361.8.033.371.083.855.11 1.075.119.959.77 1.4 2.065 1.4 1.341 0 2.422 1.203 1.891 2.104-.522.887.382 1.896 1.7 1.896 1.121 0 1.373.152 1.373.826 0 1.469.724 2.323 1.942 2.288 1.616-.046 2.058.347 2.058 1.83 0 1.591.613 2.256 2.08 2.256 1.067 0 1.437.792 1.167 2.5-.026.165.637.3 1.473.3 1.87 0 2.48.564 2.48 2.293 0 1.345.112 1.446 2.1 1.881.729.16 1.1.497 1.1 1.001 0 1.505.46 2.025 1.794 2.025 1.576 0 2.098.551 2.273 2.402.12 1.26.272 1.418 1.533 1.598 1.244.178 1.422.356 1.6 1.6.18 1.261.338 1.413 1.598 1.533 1.86.176 2.402.697 2.402 2.308 0 1.141.166 1.38 1.1 1.585 1.948.427 2.1.534 2.1 1.481 0 1.229.713 1.893 2.031 1.893 1.354 0 1.908.666 2.027 2.44.084 1.24.231 1.412 1.274 1.491 1.62.124 1.868.343 1.868 1.65 0 1.179.585 1.619 2.153 1.619 1.237 0 1.847.74 1.847 2.24 0 1.15.153 1.316 1.5 1.633 1.308.307 1.516.517 1.625 1.639.114 1.164.279 1.311 1.735 1.544 1.605.257 1.97.645 2.145 2.279.051.476.116 1 .144 1.165.028.165.423.3.877.3 1.364 0 2.374.762 2.374 1.79 0 1.094.533 1.537 1.923 1.598 1.131.05 2.077 1.171 1.875 2.222-.17.881.509 1.52 1.828 1.721.731.112 1.045.498 1.308 1.608.309 1.305.482 1.461 1.626 1.461 1.551 0 2.24.615 2.24 2 0 1.344.682 2 2.08 2 .837 0 1.133.202 1.17.8.116 1.862.541 2.4 1.894 2.4 1.375 0 2.056.662 2.056 2 0 1.344.682 2 2.08 2 .96 0 1.12.16 1.12 1.12 0 1.398.656 2.08 2 2.08 1.341 0 2 .681 2 2.066 0 1.177.929 1.934 2.374 1.934.568 0 .826.258.826.826 0 1.445.757 2.374 1.934 2.374 1.404 0 2.066.662 2.066 2.066 0 1.177.929 1.934 2.374 1.934.755 0 1 .698.792 2.255-.06.448 1 .933 2.054.939 1.33.008 1.98.696 1.98 2.099 0 1.165.281 1.395 2 1.64.764.108 1.032.416 1.135 1.305.178 1.522.583 1.964 1.899 2.073 1.546.128 2.166.791 2.166 2.314 0 1.244.093 1.334 1.5 1.451 1.419.117 1.507.205 1.624 1.624.117 1.407.207 1.5 1.451 1.5 1.79 0 2.228.621 2.592 3.676.018.152.708.332 1.533.4 1.379.114 1.516.237 1.7 1.524.172 1.204.368 1.419 1.4 1.535 1.595.18 2.2.739 2.2 2.034 0 1.374.673 2.031 2.08 2.031.865 0 1.12.188 1.12.826 0 1.445.757 2.374 1.934 2.374 1.458 0 2.066.67 2.066 2.275 0 1.225.11 1.333 1.6 1.571 1.404.225 1.6.387 1.6 1.325 0 1.35.67 2.029 2 2.029 1.385 0 2 .688 2 2.237 0 1.349.525 1.763 2.233 1.763.756 0 .967.211.967.967 0 1.708.414 2.233 1.763 2.233 1.626 0 2.237.622 2.237 2.275 0 1.225.11 1.333 1.6 1.571 1.565.251 1.805.62 1.566 2.409-.061.453 1.005.933 2.085.939 1.276.007 1.835.619 2.014 2.206.114 1.01.369 1.258 1.615 1.566 1.258.31 1.497.547 1.6 1.583.107 1.081.321 1.266 1.92 1.651 1.739.419 1.804.49 1.921 2.074.098 1.333.286 1.667 1 1.783 1.547.251 93.003-.247 93.263-.508.138-.138.343-.755.454-1.372.283-1.558.377-1.653 1.92-1.943 1.169-.219 1.418-.469 1.714-1.722.283-1.195.584-1.527 1.628-1.798 1.051-.272 2.68-1.914 1.9-1.914-.125 0-.035-.36.2-.8.241-.45.838-.8 1.365-.8 1.099 0 1.704-.626 1.897-1.959.139-.965.417-1.192 2.438-1.99.759-.299 1.1-.721 1.1-1.362 0-1.155.7-1.889 1.8-1.889 1.072 0 1.8-.728 1.8-1.8s.728-1.8 1.8-1.8 1.8-.728 1.8-1.8.728-1.8 1.8-1.8c1.082 0 1.8-.73 1.8-1.831s.673-1.661 2.2-1.834c.999-.112 1.223-.336 1.335-1.335.183-1.617.741-2.2 2.106-2.2.925 0 1.188-.211 1.375-1.1.382-1.814.802-2.294 2.123-2.425.998-.1 1.305-.348 1.484-1.2.354-1.692.785-2.264 1.818-2.413 1.311-.189 1.959-.795 1.959-1.831 0-1.111.72-1.831 1.831-1.831 1.048 0 1.644-.652 1.831-2 .102-.738.504-1.117 1.538-1.447 1.048-.335 1.511-.778 1.84-1.761.324-.969.795-1.428 1.8-1.752 1.025-.332 1.468-.775 1.8-1.8.327-1.012.78-1.473 1.768-1.8.979-.325 1.446-.796 1.78-1.794.336-1.004.8-1.469 1.8-1.8 1.013-.335 1.464-.794 1.815-1.846.354-1.061.74-1.448 1.59-1.6 1.162-.207 1.535-.632 2.197-2.5.283-.797.662-1.1 1.376-1.1 1.077 0 1.427-.379 2.034-2.2.278-.834.705-1.242 1.4-1.338 1.348-.187 2-.783 2-1.831 0-1.101.718-1.831 1.8-1.831 1.072 0 1.8-.728 1.8-1.8s.728-1.8 1.8-1.8 1.8-.728 1.8-1.8.728-1.8 1.8-1.8c1.082 0 1.8-.73 1.8-1.831 0-1.036.648-1.642 1.959-1.831 1.006-.145 1.318-.562 1.902-2.538.301-1.018.596-1.23 1.947-1.4l1.592-.2v-4.4l-1.398-.133c-1.8-.17-2.402-.695-2.402-2.092 0-1.258-.365-1.588-2.165-1.954-.92-.187-1.27-.502-1.373-1.236-.191-1.357-.791-1.985-1.897-1.985-.996 0-1.765-1.024-1.765-2.35 0-.935-.462-1.283-2.165-1.629-.92-.187-1.27-.502-1.373-1.236-.189-1.345-.731-1.915-1.958-2.061-.83-.099-1.125-.443-1.481-1.724-.376-1.353-.628-1.621-1.634-1.735-1.529-.174-2.189-.737-2.189-1.865 0-1.073-.64-1.673-1.985-1.862-.734-.103-1.049-.453-1.236-1.373-.366-1.8-.696-2.165-1.954-2.165-1.292 0-1.889-.572-2.087-2-.101-.736-.506-1.119-1.532-1.451-1.105-.357-1.448-.716-1.657-1.737-.329-1.609-.648-1.918-2.149-2.081-.973-.106-1.285-.396-1.647-1.531-.34-1.062-.775-1.509-1.8-1.85-1.061-.353-1.381-.698-1.484-1.6-.165-1.454-.483-1.772-2.1-2.103-1.021-.209-1.402-.558-1.757-1.611-.339-1.007-.799-1.456-1.832-1.79-1.113-.36-1.405-.678-1.511-1.646-.163-1.501-.472-1.82-2.081-2.149-1.021-.209-1.38-.552-1.737-1.657-.332-1.026-.715-1.431-1.451-1.532-1.421-.197-2-.794-2-2.062 0-1.325-.595-1.884-2.2-2.065-.93-.105-1.231-.36-1.338-1.135-.188-1.359-.785-2-1.862-2-.784 0-2.18-1.074-1.9-1.461.689-.956-.05-2.057-1.6-2.382-1.437-.302-1.719-.523-1.824-1.428-.146-1.263-.707-1.801-2.076-1.991-.806-.111-1.071-.456-1.364-1.774-.332-1.497-.503-1.668-2-2-1.365-.304-1.656-.541-1.76-1.435-.145-1.26-.707-1.801-2.065-1.991-.808-.113-1.05-.448-1.323-1.838-.314-1.591-.42-1.7-1.663-1.7-1.484 0-2.082-.523-2.287-2-.101-.736-.506-1.119-1.532-1.451-1.07-.345-1.45-.725-1.636-1.634-.356-1.74-.695-2.115-1.914-2.115-1.531 0-2.056-.685-2.056-2.68v-1.72l-2.1.046c-1.155.026-1.805.125-1.444.221.483.129.647.612.62 1.827-.02.909.135 1.721.344 1.804 2.152.857 4.81 2.459 5.144 3.102 1.341 2.579 2.612 4.005 4.535 5.091 1.17.66 2.385 1.698 2.7 2.307.945 1.827 2.678 3.669 4.593 4.88.994.629 2.438 2.078 3.208 3.219.77 1.142 2.21 2.656 3.2 3.365 2.252 1.613 2.925 2.286 4.538 4.538.709.99 2.223 2.43 3.365 3.2 1.141.77 2.59 2.214 3.219 3.208 1.235 1.952 3.287 3.863 4.741 4.416.499.19 1.394 1.116 1.988 2.058 1.364 2.159 2.7 3.499 4.841 4.85.927.585 1.981 1.65 2.342 2.366.802 1.588 3.817 4.46 5.348 5.095.692.286 1.396 1.072 1.837 2.05.807 1.789 3.149 4.068 5.17 5.033.772.367 1.455 1.043 1.587 1.57.275 1.095 3.402 4.274 5.524 5.616.825.521 1.5 1.111 1.5 1.311 0 .731 4.168 4.896 5.661 5.658.847.432 1.539 1.039 1.539 1.349 0 .86 4.036 5.014 5.452 5.611.921.388 1.519 1.111 2.26 2.729.661 1.445 1.33 2.307 1.948 2.511l.94.31-1 .247c-.696.171-1.302.864-1.991 2.274-.548 1.122-1.491 2.315-2.112 2.671-.616.354-1.43 1.185-1.809 1.847-.378.662-1.162 1.4-1.741 1.641-.578.24-1.365 1.018-1.748 1.728-.382.71-1.219 1.592-1.859 1.959-.64.368-1.453 1.169-1.807 1.78-.353.612-1.198 1.472-1.876 1.913-.679.44-1.435 1.203-1.68 1.696-.246.492-1.058 1.307-1.806 1.811s-1.567 1.332-1.821 1.841c-.253.509-1.025 1.268-1.714 1.687-.689.419-1.464 1.226-1.722 1.793s-.983 1.296-1.61 1.62c-.626.325-1.473 1.139-1.882 1.81-.408.672-1.304 1.563-1.99 1.98-.687.418-1.46 1.223-1.718 1.79s-.987 1.299-1.62 1.626c-.633.327-1.499 1.185-1.924 1.907-.426.721-1.224 1.516-1.773 1.767-.549.25-1.34 1.016-1.758 1.703-.417.686-1.321 1.59-2.007 2.007-.687.418-1.434 1.167-1.661 1.665-.227.498-.948 1.213-1.604 1.589-.655.376-1.486 1.198-1.847 1.827s-1.167 1.437-1.792 1.795c-.625.359-1.512 1.29-1.971 2.069-.46.779-1.057 1.416-1.327 1.416-.585 0-2.009 1.512-2.36 2.506-.137.388-.659.863-1.16 1.054-1.017.389-2.06 1.478-2.439 2.546-.138.388-.66.863-1.161 1.054-.944.361-2.094 1.49-2.358 2.316-.084.262-.779.897-1.546 1.412-.767.515-1.593 1.334-1.835 1.82s-1.052 1.296-1.8 1.8-1.558 1.314-1.8 1.8-1.052 1.296-1.8 1.8-1.558 1.314-1.8 1.8-1.052 1.296-1.8 1.8-1.567 1.332-1.821 1.841c-.253.509-1.025 1.268-1.714 1.687-.689.419-1.464 1.226-1.722 1.793s-.987 1.299-1.62 1.626c-.633.327-1.515 1.213-1.962 1.97-.446.756-.959 1.375-1.141 1.375-.699 0-2.791 2.108-2.791 2.812 0 1.238.549 1.223-44.379 1.197-45.8-.027-44.682.009-45.231-1.435-.192-.504-1.005-1.228-1.807-1.609-.802-.38-1.655-1.125-1.897-1.655-.241-.53-1.041-1.215-1.777-1.522a3.493 3.493 0 0 1-1.897-1.897c-.307-.736-1.026-1.551-1.597-1.811-.571-.261-1.411-1.105-1.866-1.877-.455-.772-1.142-1.403-1.527-1.403-.832 0-1.817-1.04-2.212-2.334-.159-.521-.785-1.108-1.415-1.328-.673-.234-1.388-.937-1.767-1.736-.434-.914-1.076-1.488-2.009-1.796-.996-.328-1.493-.803-1.811-1.729-.241-.702-1.004-1.637-1.696-2.077-.692-.44-1.555-1.34-1.917-2-.363-.66-1.005-1.264-1.427-1.341-1.072-.198-2.168-1.25-2.168-2.081 0-.385-.631-1.072-1.403-1.527-.772-.455-1.616-1.295-1.877-1.866-.26-.571-1.075-1.29-1.811-1.597a3.493 3.493 0 0 1-1.897-1.897c-.307-.736-1.026-1.551-1.597-1.811-.571-.261-1.402-1.09-1.847-1.845-.45-.762-1.339-1.556-2.002-1.787-.774-.27-1.39-.887-1.753-1.756-.308-.737-1.022-1.55-1.587-1.808-.565-.257-1.377-1.041-1.803-1.742-.426-.701-1.333-1.509-2.015-1.796-.771-.324-1.398-.973-1.656-1.713-.231-.662-1.026-1.552-1.79-2.002-.756-.446-1.545-1.261-1.754-1.81-.212-.557-.974-1.247-1.725-1.56-.852-.357-1.538-1.027-1.87-1.831-.289-.697-1.037-1.532-1.663-1.856-.625-.323-1.414-1.124-1.753-1.779-.341-.66-1.23-1.449-1.992-1.767-.911-.381-1.466-.932-1.641-1.628-.156-.621-.908-1.459-1.833-2.044-.863-.545-1.716-1.386-1.895-1.869-.179-.484-1.018-1.241-1.864-1.683-.968-.505-1.627-1.176-1.773-1.804-.128-.55-.726-1.237-1.328-1.528-.603-.29-1.534-1.222-2.07-2.07-.578-.916-1.345-1.595-1.887-1.672-.594-.085-1.172-.659-1.651-1.639-.406-.83-1.258-1.778-1.893-2.107-.636-.329-1.434-1.134-1.773-1.789-.339-.656-1.217-1.444-1.952-1.751-.886-.37-1.483-.978-1.771-1.803-.256-.735-.856-1.406-1.464-1.637-.566-.215-1.395-1.01-1.841-1.766-.451-.765-1.34-1.559-2.003-1.79-.797-.278-1.392-.891-1.791-1.846-.342-.819-1.02-1.591-1.586-1.806-.544-.207-1.338-.95-1.765-1.652-.426-.702-1.333-1.51-2.015-1.797-.767-.323-1.451-1.03-1.797-1.858-.308-.735-1.021-1.547-1.586-1.805-.565-.257-1.377-1.041-1.803-1.742-.426-.701-1.333-1.509-2.015-1.796-.771-.324-1.398-.973-1.656-1.713-.229-.655-1.02-1.548-1.759-1.984-.739-.436-1.629-1.345-1.978-2.021-.356-.688-.956-1.228-1.363-1.228-.876 0-1.845-1.004-2.414-2.501-.23-.604-.665-1.099-.966-1.099-.63 0-1.797-1.194-2.447-2.503-.245-.493-.842-.954-1.327-1.024-.922-.132-2.498-1.822-2.498-2.678 0-.274-.527-.716-1.172-.983-.661-.274-1.448-1.068-1.805-1.819-.429-.905-1.074-1.48-2.004-1.787-.996-.328-1.493-.803-1.811-1.729-.241-.702-1.011-1.637-1.712-2.078-.7-.44-1.496-1.247-1.767-1.792-.272-.545-1.087-1.189-1.812-1.431-.966-.323-1.436-.799-1.763-1.787-.284-.858-.881-1.553-1.649-1.916-.661-.313-1.482-1.155-1.823-1.87-.4-.84-1.02-1.401-1.749-1.584-1.548-.389-2.133-.951-2.133-2.049 0-.664-.385-1.115-1.334-1.566-.734-.348-1.599-1.191-1.922-1.873-.388-.819-1.055-1.391-1.966-1.685-1.037-.336-1.485-.777-1.81-1.782a3.23 3.23 0 0 0-1.665-1.933c-.678-.328-1.442-1.1-1.696-1.714-.301-.727-1.014-1.334-2.039-1.737-1.225-.481-1.629-.886-1.816-1.819-.161-.807-.599-1.349-1.335-1.654-.603-.25-1.488-1.152-1.968-2.005-.627-1.116-1.177-1.586-1.96-1.677-.848-.097-1.187-.435-1.531-1.525-.291-.92-.908-1.662-1.8-2.163-2.663-1.498-4.158-4.063-4.158-7.136v-2.699l-1.8.005c-.99.003-2.045.161-2.345.351" fill="#c4c4c4"></path>
        <path d="M105.528.9c-.106.748-.415.921-1.828 1.023-1.683.122-1.7.138-1.7 1.657 0 1.669-.427 2.02-2.456 2.02-2.251 0-1.531 3.358.756 3.523l1.7.123V5.6h3.6V2h2c1.867 0 2-.067 2-1 0-1.457-3.866-1.552-4.072-.1M201.2 1c0 .919.147 1 1.8 1s1.8-.081 1.8-1-.147-1-1.8-1-1.8.081-1.8 1m4 2.8v1.8h3.6v3.646l1.7-.123c1.683-.122 1.701-.139 1.821-1.774l.12-1.652-1.82-.273c-1.807-.271-1.821-.285-1.821-1.849V2h-3.6v1.8M95.878 9.089c-2.134.321-1.421 3.472.822 3.634l1.7.123v-2.023c0-2.172.07-2.124-2.522-1.734M212.4 10.823v2.023l1.7-.123c2.361-.171 2.918-3.219.67-3.669-2.298-.46-2.37-.406-2.37 1.769M91.879 12.68c-1.736.45-.712 3.503 1.221 3.643l1.7.123v-2.023c0-2.146-.414-2.393-2.921-1.743m124.007.02c-.089.165-.08 1.074.02 2.021l.182 1.721 1.656-.121c3.008-.22 2.613-3.9-.42-3.915-.702-.003-1.349.129-1.438.294M88.3 16.276c-.579.151-1.133 3.236-.6 3.344.055.012.865.118 1.8.238l1.7.217v-2.038c0-2.158-.416-2.41-2.9-1.761m131.256.424c-.168 2.646.315 3.33 2.244 3.178 1.337-.105 1.941-2.144.978-3.304-.708-.854-3.166-.758-3.222.126M84.472 19.947c-.33.209-.48.917-.4 1.894.186 2.272 3.332 2.693 3.589.48.297-2.57-1.164-3.658-3.189-2.374m138.682-.168c-1.411 1.411 1.152 4.283 3.146 3.525.751-.285.641-3.164-.133-3.461-.736-.283-2.751-.325-3.013-.064M80.838 23.754c-1.187 1.43-.381 3.243 1.462 3.286l1.7.041V25.54c0-.847.045-1.675.1-1.84.199-.598-2.761-.55-3.262.054m145.875-.334c-.178.179.022 3.02.229 3.243.821.885 3.274.168 3.385-.989.188-1.956-2.337-3.531-3.614-2.254M76.968 27.339c-.716 1.865-.017 3.264 1.586 3.174 1.892-.107 1.776.009 1.924-1.924L80.6 27l-1.704-.123c-1.211-.088-1.768.046-1.928.462m153.329-.239c-.083.165-.197.975-.255 1.8l-.103 1.5h2.03c2.126 0 2.615-.812 1.788-2.967-.251-.654-3.159-.934-3.46-.333M73.638 30.954c-.514.62-.461 3.32.062 3.146.165-.055.985-.1 1.822-.1h1.522l-.022-1.7c-.024-1.882-2.215-2.754-3.384-1.346m160.229-.287c-.147.146-.267.956-.267 1.8V34h2c2.155 0 2.638-.86 1.586-2.826-.409-.764-2.711-1.116-3.319-.507M69.78 34.937c-.297 1.183-.098 2.902.32 2.763.165-.055 1.03-.1 1.923-.1h1.623l-.123-1.7c-.155-2.143-3.247-2.939-3.743-.963m167.687-.67c-.147.146-.267.956-.267 1.8V37.6h2c2.147 0 2.205-.077 1.75-2.35-.245-1.224-2.582-1.884-3.483-.983M66.257 38.48c-.635 2.373-.41 2.72 1.766 2.72h2.023l-.123-1.7c-.152-2.094-3.154-2.93-3.666-1.02m174.829-.632c-.157.157-.286.975-.286 1.819V41.2h3.806l-.143 1.8-.144 1.8H248v3.6h3.6V52h3.6v3.6h3.6v3.646l1.7-.123c2.066-.15 3.043-3.517 1.023-3.528-2.088-.013-2.675-.418-2.801-1.936-.118-1.408-.181-1.463-1.822-1.582l-1.7-.123V48.4h-3.554l-.123-1.7c-.122-1.692-.131-1.701-1.823-1.823l-1.7-.123v-3.508l-1.7-.123c-1.657-.12-1.705-.163-1.9-1.723-.197-1.577-2.303-2.564-3.314-1.552M62.657 42.08c-.635 2.373-.41 2.72 1.766 2.72h2.023l-.123-1.7c-.152-2.094-3.154-2.93-3.666-1.02M59.2 45.327c0 .315-.112 1.136-.25 1.823l-.25 1.25h4.146l-.123-1.7c-.122-1.692-.131-1.701-1.823-1.823-1.266-.092-1.7.023-1.7.45m-3.605 3.95c-.013 2.2-.406 2.723-2.042 2.723-1.538 0-1.553.015-1.553 1.557 0 1.693-.42 2.043-2.456 2.043-2.251 0-1.531 3.358.756 3.523l1.7.123V55.6h3.6V52h3.646l-.123-1.7c-.15-2.066-3.517-3.043-3.528-1.023M46.2 59.151c-2.191.469-1.784 3.374.5 3.566l1.7.142V60.83c0-2.146-.003-2.149-2.2-1.679m216.2 1.604c0 1.993.03 2.045 1.167 2.045 1.937 0 2.433-.371 2.433-1.819 0-1.532-.083-1.61-2.103-1.989l-1.497-.281v2.044M41.879 62.68c-1.736.45-.712 3.503 1.221 3.643l1.7.123v-2.023c0-2.146-.414-2.393-2.921-1.743M266 64.423v2.023l1.7-.123c3.341-.242 2.595-3.897-.8-3.918-.815-.004-.9.185-.9 2.018M38.3 66.432c-.567.33-1.086 3.09-.6 3.188.055.012.865.118 1.8.238l1.7.217v-2.038c0-2.176-.985-2.721-2.9-1.605M269.6 67.8c0 1.429.144 1.81.7 1.848 2.761.187 2.694.216 2.831-1.23.153-1.606-.655-2.418-2.407-2.418-1.065 0-1.124.094-1.124 1.8M34.472 69.947c-.33.209-.48.917-.4 1.894.177 2.158 3.152 2.46 3.544.359.441-2.362-1.161-3.51-3.144-2.253m238.647.353c-.386 1.928.125 2.9 1.526 2.9.745 0 1.49.045 1.655.1.513.171.581-2.521.078-3.126-.7-.844-3.084-.752-3.259.126M30.838 73.754c-1.183 1.426-.38 3.258 1.362 3.106 1.926-.168 1.698.06 1.863-1.86.153-1.782-2.067-2.641-3.225-1.246m245.885-.344c-.186.186-.013 3.04.196 3.238.924.879 3.295.201 3.408-.974.187-1.948-2.336-3.532-3.604-2.264M27.238 77.354c-1.176 1.417-.381 3.257 1.351 3.124 1.92-.147 1.742.031 1.889-1.889.136-1.772-2.09-2.621-3.24-1.235m253.128-.454c-.018.055-.11.865-.204 1.8l-.17 1.7h2.004c2.097 0 2.585-.821 1.761-2.967-.2-.521-3.234-.998-3.391-.533M23.68 80.88c-.264.264-.48 1.074-.48 1.8 0 1.239-.085 1.32-1.386 1.32-1.865 0-2.223.802-2.174 4.874.058 4.819.26 5.326 2.124 5.326h1.527l-.066-5.1-.065-5.1h1.776c1.724 0 2.815-1.815 1.985-3.3-.27-.481-2.716-.345-3.241.18m260.187-.213c-.147.146-.267.956-.267 1.8V84h2c2.155 0 2.638-.86 1.586-2.826-.409-.764-2.711-1.116-3.319-.507m3.6 3.6c-.147.146-.267.956-.267 1.8V87.6h2c2.147 0 2.205-.077 1.75-2.35-.245-1.224-2.582-1.884-3.483-.983m3.6 3.6c-.147.146-.267.956-.267 1.8V91.2h3.806l-.143 1.8-.144 1.8H298v3.6h3.6v3.6h3.6v3.6h3.6v1.8c0 1.877.901 2.35 2.967 1.557 1.096-.42.863-3.356-.267-3.362-2.064-.013-2.652-.423-2.778-1.936-.118-1.408-.181-1.463-1.822-1.582l-1.7-.123V98.4h-3.6v-3.6H298v-3.554l-1.7-.123c-1.692-.122-1.701-.131-1.823-1.823-.12-1.658-2.278-2.566-3.41-1.433M23.2 95.426c0 1.744.693 2.574 2.147 2.574 1.678 0 1.709-.039 1.524-1.979l-.155-1.621h-1.758c-1.621 0-1.758.08-1.758 1.026m3.6 3.741c0 2.011.354 2.433 2.043 2.433 1.502 0 1.557.048 1.557 1.351 0 .743.258 1.565.574 1.827.605.503 3.297.435 3.126-.078-.055-.165-.1-.93-.1-1.7 0-1.393-.01-1.4-1.8-1.4h-1.8V98h-1.8c-1.722 0-1.8.051-1.8 1.167m7.2 7.2c0 2.011.354 2.433 2.043 2.433 1.495 0 1.557.053 1.557 1.32 0 1.669.611 2.28 2.28 2.28 1.227 0 1.32.093 1.32 1.32 0 1.669.611 2.28 2.28 2.28 1.227 0 1.32.093 1.32 1.32 0 1.669.611 2.28 2.28 2.28 1.298 0 1.32-.03 1.32-1.8V116h-3.6v-3.6h-3.6v-3.6h-3.6v-3.6h-1.8c-1.722 0-1.8.051-1.8 1.167m278.4 4.388c0 1.993.03 2.045 1.167 2.045 1.937 0 2.433-.371 2.433-1.819 0-1.532-.083-1.61-2.103-1.989l-1.497-.281v2.044m3.6 3.585v1.941l1.7-.041c3.369-.08 2.59-3.814-.8-3.835-.81-.004-.9.188-.9 1.935m3.6 3.46c0 1.429.144 1.81.7 1.848 2.761.187 2.694.216 2.831-1.23.153-1.606-.655-2.418-2.407-2.418-1.065 0-1.124.094-1.124 1.8m-271.021 1.754c-.489.49-.131 3.179.454 3.403 2.048.786 2.967.317 2.967-1.515v-1.758l-1.621-.155c-.891-.085-1.701-.073-1.8.025m274.54.746c-.377 1.882.131 2.9 1.446 2.9 1.625 0 2.235.623 2.235 2.28 0 1.227.093 1.32 1.32 1.32 1.669 0 2.28.611 2.28 2.28 0 1.298.03 1.32 1.8 1.32 1.778 0 1.8-.016 1.8-1.351 0-1.681-.802-2.383-2.496-2.185-1.282.149-1.305.124-1.171-1.278.169-1.773-.628-2.532-2.437-2.321-1.275.149-1.31.114-1.161-1.161.256-2.192-3.194-3.912-3.616-1.804m-270.94 2.854c-1.212 1.212.37 3.646 2.371 3.646.869 0 1.018.199 1.126 1.5.116 1.405.23 1.523 1.804 1.873 1.551.344 1.69.481 1.8 1.787.108 1.272.271 1.45 1.623 1.768 1.168.274 1.553.588 1.733 1.412.413 1.898.527 2.06 1.451 2.066 1.333.009 1.795.428 2.201 1.995.564 2.175 3.588 2.174 3.375-.001-.172-1.756-.217-1.797-1.996-1.816-1.171-.012-1.475-.174-1.508-.8-.163-3.136-.023-2.921-1.859-2.864l-1.7.053.119-1.664.119-1.664-1.919-.122L59 130.2l.103-1.7c.111-1.81.079-1.835-2.203-1.71-1.283.07-1.3.049-1.3-1.717v-1.789l-1.621-.155c-.891-.085-1.701-.073-1.8.025m281.712 7.546c-.086.165-.192.975-.236 1.8l-.08 1.5h2.012c2.198 0 2.45-.399 1.623-2.574-.383-1.007-2.887-1.555-3.319-.726m3.576 3.567c-.147.146-.267.965-.267 1.819v1.554l2-.092c2.112-.096 2.174-.177 1.75-2.298-.245-1.224-2.582-1.884-3.483-.983m3.619 3.581c-.157.157-.286.975-.286 1.819v1.533h3.806l-.143 1.8-.144 1.8H348v3.6h3.6v3.6h3.6v3.6h3.6v1.8c0 1.877.901 2.35 2.967 1.557 1.096-.42.863-3.356-.267-3.362-2.064-.013-2.652-.423-2.778-1.936-.118-1.408-.181-1.463-1.822-1.582l-1.7-.123V148.4h-3.6v-3.6H348v-3.554l-1.7-.123c-1.657-.12-1.705-.163-1.9-1.723-.197-1.577-2.303-2.564-3.314-1.552M69.6 141.645c0 1.784.748 2.755 2.123 2.755 1.701 0 1.733-.04 1.552-1.936l-.151-1.578-1.762.028c-1.404.022-1.762.171-1.762.731m3.6 3.594c0 1.79.747 2.761 2.123 2.761 1.705 0 1.733-.036 1.547-1.981l-.154-1.622-1.758.066c-1.391.053-1.758.215-1.758.776m3.6 3.787c0 1.773.689 2.574 2.214 2.574 1.221 0 1.386.122 1.386 1.026 0 1.744.693 2.574 2.147 2.574 1.678 0 1.709-.039 1.524-1.979l-.155-1.621H80.4V148h-1.8c-1.666 0-1.8.077-1.8 1.026m7.2 7.494c0 1.669.611 2.28 2.28 2.28 1.227 0 1.32.093 1.32 1.32 0 1.669.611 2.28 2.28 2.28 1.298 0 1.32-.03 1.32-1.8v-1.8h-3.6v-3.6h-1.8c-1.77 0-1.8.022-1.8 1.32m278.4 4.258v2.068l1.7-.123c2.935-.212 2.775-3.19-.2-3.736l-1.5-.276v2.067m-271.021 1.576c-1.163 1.164.267 3.646 2.101 3.646 1.239 0 1.32.085 1.32 1.386 0 1.525.801 2.214 2.574 2.214.949 0 1.026-.134 1.026-1.8V166h-3.6v-3.516l-1.621-.155c-.891-.085-1.701-.073-1.8.025M366 164.43v2.029l1.7-.14c3.059-.253 2.686-3.898-.4-3.913-1.297-.006-1.3-.001-1.3 2.024m3.6 3.37c0 1.829.127 1.956 1.834 1.824 1.127-.087 1.681.679 1.836 2.539.111 1.323.279 1.568 1.137 1.657 1.637.171 2.465-.715 2.319-2.483l-.126-1.537h-1.809c-1.807 0-1.808-.001-1.655-1.306.198-1.692-.504-2.494-2.185-2.494-1.335 0-1.351.022-1.351 1.8m-271.021 1.754c-.677.677-.1 2.896.847 3.256 2.107.801 2.574.553 2.574-1.368v-1.758l-1.621-.155c-.891-.085-1.701-.073-1.8.025m3.546 3.897c-.602 1.569.072 2.748 1.775 3.106 1.499.314 1.7.486 1.7 1.451 0 1.343.557 1.813 2.501 2.111 1.322.204 1.457.15 1.137-.448-.2-.374-.269-1.173-.154-1.775.204-1.067.16-1.096-1.637-1.096H105.6v-3.516l-1.645-.157c-1.042-.099-1.713.02-1.83.324m274.675.183c0 .227-.225.278-.5.113-.368-.221-.395-.149-.1.276.22.317.4 1.863.4 3.436l-.001 2.858 1.401-.21c1.948-.294 2.08-.503 2.08-3.307 0-1.364-.153-2.618-.34-2.787-.58-.524-2.94-.828-2.94-.379m-83.4 7.566c.661.731 1.232.8 6.6.8 5.368 0 5.939-.069 6.6-.8.721-.797.699-.8-6.6-.8-7.299 0-7.321.003-6.6.8M21.211 219.955c-2.376.662-2.005 5.991.461 6.605 1.271.317 1.474.542 1.686 1.865.221 1.387.365 1.526 1.841 1.775 1.333.225 1.601.427 1.601 1.202 0 1.691.426 2.153 2.235 2.424 1.502.225 1.765.403 1.765 1.191 0 1.201 1.002 2.183 2.229 2.183.828 0 .972.192.977 1.3.008 1.775.372 2.213 1.964 2.367 1.138.111 1.437.352 1.806 1.453.494 1.477 1.203 2.065 2.501 2.074.745.005.896.263 1 1.706.122 1.68.142 1.701 1.757 1.82 1.519.111 1.66.224 2 1.6.313 1.265.581 1.533 1.846 1.846 1.376.34 1.489.481 1.6 2 .119 1.615.14 1.635 1.82 1.757 1.293.094 1.7.288 1.7.811 0 1.13 1.122 2.385 2.379 2.661 1.047.23 1.191.445 1.299 1.932.121 1.66.135 1.674 1.822 1.796 1.395.101 1.7.267 1.7.926 0 1.338.707 2.232 1.965 2.484 1.002.2 1.238.482 1.472 1.753.326 1.774.707 2.1 2.463 2.108 1.164.005 1.3.126 1.3 1.157 0 1.285.501 1.82 2.048 2.188.851.203 1.096.551 1.304 1.849.259 1.621.415 1.737 2.848 2.101.505.075.851.486.938 1.115.199 1.43.797 1.996 2.111 1.996 1.031 0 1.152.136 1.157 1.3.008 1.767.349 2.18 2.061 2.501 1.144.215 1.524.508 1.731 1.335.388 1.544.955 2.064 2.251 2.064 1.005 0 1.151.148 1.151 1.167 0 1.996.358 2.433 1.992 2.433 1.44 0 1.517.068 1.755 1.556.255 1.598.792 2.044 2.463 2.044.825 0 .96.215 1.067 1.7.122 1.683.139 1.701 1.775 1.821 1.579.115 1.663.189 1.898 1.656.252 1.577.795 2.023 2.46 2.023.825 0 .96.215 1.067 1.7.122 1.692.131 1.701 1.823 1.823 1.485.107 1.7.242 1.7 1.067 0 1.665.446 2.208 2.023 2.46 1.467.235 1.541.319 1.656 1.898.12 1.632.142 1.653 1.798 1.774 1.619.118 1.682.173 1.8 1.6.111 1.34.263 1.513 1.618 1.847 1.298.321 1.529.558 1.758 1.8.309 1.685.706 2.017 2.423 2.025 1.182.006 1.285.115 1.4 1.493.112 1.346.263 1.52 1.577 1.829 1.291.303 1.481.512 1.698 1.869.251 1.569.796 2.015 2.464 2.015.772 0 .999.267 1.217 1.432.148.787.471 1.492.719 1.567.247.074.944.243 1.549.375.87.191 1.101.469 1.106 1.334.009 1.546.395 1.981 2.032 2.288 1.242.233 1.486.469 1.799 1.737.329 1.329.504 1.479 1.863 1.591 1.392.115 1.5.216 1.506 1.4.009 1.754.377 2.189 1.983 2.343 1.183.114 1.419.312 1.633 1.368.374 1.847.695 2.165 2.179 2.165 1.306 0 1.357.059 1.476 1.7.122 1.692.131 1.701 1.823 1.823 1.577.114 1.7.206 1.7 1.271 0 1.465.941 2.406 2.406 2.406 1.065 0 1.157.123 1.271 1.7.122 1.692.131 1.701 1.823 1.823 1.643.119 1.7.168 1.7 1.486 0 1.495.811 2.191 2.551 2.191.894 0 1.016.185 1.126 1.7.122 1.688.135 1.701 1.8 1.822 1.619.118 1.682.173 1.8 1.6.111 1.34.263 1.513 1.618 1.847 1.298.321 1.529.558 1.758 1.8.309 1.685.706 2.017 2.423 2.025 1.182.006 1.285.115 1.4 1.493.112 1.346.263 1.52 1.577 1.829 1.291.303 1.481.512 1.698 1.869.252 1.572.795 2.015 2.474 2.015.722 0 1.019.273 1.201 1.1.427 1.948.508 2.044 1.848 2.173.959.092 1.352.345 1.438.927.35 2.354.476 2.528 2.022 2.789 1.363.23 1.578.426 1.901 1.735.331 1.339.504 1.488 1.865 1.6 1.354.112 1.5.235 1.5 1.267 0 1.986.359 2.409 2.043 2.409 1.405 0 1.557.1 1.557 1.026 0 1.763.69 2.574 2.191 2.574 1.318 0 1.367.057 1.486 1.7.122 1.692.131 1.701 1.823 1.823 1.502.109 1.7.237 1.7 1.1V400h96.4v-1c0-.895.163-1 1.557-1 1.647 0 2.043-.433 2.043-2.233 0-.756.211-.967.967-.967 1.794 0 2.233-.397 2.233-2.02 0-1.519.017-1.535 1.7-1.657 1.688-.122 1.701-.135 1.822-1.801.121-1.662.138-1.679 1.8-1.8s1.679-.138 1.8-1.8.138-1.679 1.8-1.8 1.679-.138 1.8-1.8.138-1.679 1.8-1.8 1.679-.138 1.8-1.8.138-1.679 1.8-1.8c1.666-.121 1.679-.134 1.801-1.822l.123-1.7h3.554v-3.6h3.6v-3.554l1.7-.123c1.688-.122 1.701-.135 1.822-1.801.121-1.662.138-1.679 1.8-1.8s1.679-.138 1.8-1.8.138-1.679 1.8-1.8 1.679-.138 1.8-1.8.138-1.679 1.8-1.8 1.679-.138 1.8-1.8.138-1.679 1.8-1.8c1.666-.121 1.679-.134 1.801-1.822.122-1.683.138-1.7 1.657-1.7 1.623 0 2.02-.439 2.02-2.233 0-.756.211-.967.967-.967 1.794 0 2.233-.397 2.233-2.02 0-1.519.017-1.535 1.7-1.657 1.688-.122 1.701-.135 1.822-1.801.121-1.662.138-1.679 1.8-1.8s1.679-.138 1.8-1.8.138-1.679 1.8-1.8c1.666-.121 1.679-.134 1.801-1.822l.123-1.7h3.554v-3.6h3.6v-3.6h3.6v-3.6h3.6V316h3.6v-1.729c0-1.666.055-1.744 1.5-2.1l1.5-.371.12-2.535c.136-2.881-.28-3.665-1.946-3.665-1.041 0-1.137-.131-1.251-1.7-.122-1.688-.135-1.701-1.801-1.822-1.662-.121-1.679-.138-1.8-1.8s-.138-1.679-1.8-1.8-1.679-.138-1.8-1.8-.138-1.679-1.8-1.8-1.679-.138-1.8-1.8-.138-1.679-1.8-1.8-1.679-.138-1.8-1.8-.138-1.679-1.8-1.8-1.679-.138-1.8-1.8-.138-1.679-1.8-1.8-1.679-.138-1.8-1.8-.138-1.679-1.8-1.8-1.679-.138-1.8-1.8-.138-1.679-1.8-1.8-1.679-.138-1.8-1.8c-.119-1.632-.166-1.683-1.722-1.878-1.524-.19-1.61-.276-1.8-1.8-.189-1.509-.283-1.607-1.66-1.722-1.334-.111-1.483-.248-1.736-1.599-.313-1.667-.745-2.064-2.253-2.073-.912-.005-1.082-.214-1.304-1.602-.239-1.493-.358-1.612-1.851-1.851-1.388-.222-1.597-.392-1.602-1.304-.009-1.512-.407-1.94-2.095-2.257-1.28-.24-1.5-.435-1.505-1.337-.009-1.529-.427-1.973-1.997-2.122-1.301-.124-1.411-.243-1.597-1.733-.195-1.556-.246-1.603-1.878-1.722-1.662-.121-1.679-.138-1.8-1.8s-.138-1.679-1.8-1.8-1.679-.138-1.8-1.8-.138-1.679-1.8-1.8-1.679-.138-1.8-1.8-.138-1.679-1.8-1.8-1.679-.138-1.8-1.8-.138-1.679-1.8-1.8-1.679-.138-1.8-1.8-.138-1.679-1.8-1.8-1.679-.138-1.8-1.8-.138-1.679-1.8-1.8-1.679-.138-1.8-1.8-.138-1.679-1.8-1.8-1.679-.138-1.8-1.8c-.119-1.632-.166-1.683-1.722-1.878-1.49-.186-1.609-.296-1.733-1.597-.16-1.694-.569-1.989-2.767-1.997l-1.7-.006v1.72c0 1.995.525 2.68 2.056 2.68 1.219 0 1.558.375 1.914 2.115.186.909.566 1.289 1.636 1.634 1.026.332 1.431.715 1.532 1.451.205 1.477.803 2 2.287 2 1.243 0 1.349.109 1.663 1.7.273 1.39.515 1.725 1.323 1.838 1.358.19 1.92.731 2.065 1.991.104.894.395 1.131 1.76 1.435 1.497.332 1.668.503 2 2 .293 1.318.558 1.663 1.364 1.774 1.369.19 1.93.728 2.076 1.991.105.905.387 1.126 1.824 1.428 1.55.325 2.289 1.426 1.6 2.382-.28.387 1.116 1.461 1.9 1.461 1.077 0 1.674.641 1.862 2 .107.775.408 1.03 1.338 1.135 1.605.181 2.2.74 2.2 2.065 0 1.268.579 1.865 2 2.062.736.101 1.119.506 1.451 1.532.357 1.105.716 1.448 1.737 1.657 1.609.329 1.918.648 2.081 2.149.106.968.398 1.286 1.511 1.646 1.033.334 1.493.783 1.832 1.79.355 1.053.736 1.402 1.757 1.611 1.617.331 1.935.649 2.1 2.103.103.902.423 1.247 1.484 1.6 1.025.341 1.46.788 1.8 1.85.362 1.135.674 1.425 1.647 1.531 1.501.163 1.82.472 2.149 2.081.209 1.021.552 1.38 1.657 1.737 1.026.332 1.431.715 1.532 1.451.198 1.428.795 2 2.087 2 1.258 0 1.588.365 1.954 2.165.187.92.502 1.27 1.236 1.373 1.345.189 1.985.789 1.985 1.862 0 1.128.66 1.691 2.189 1.865 1.006.114 1.258.382 1.634 1.735.356 1.281.651 1.625 1.481 1.724 1.227.146 1.769.716 1.958 2.061.103.734.453 1.049 1.373 1.236 1.703.346 2.165.694 2.165 1.629 0 1.326.769 2.35 1.765 2.35 1.106 0 1.706.628 1.897 1.985.103.734.453 1.049 1.373 1.236 1.8.366 2.165.696 2.165 1.954 0 1.397.602 1.922 2.402 2.092l1.398.133v4.4l-1.592.2c-1.351.17-1.646.382-1.947 1.4-.584 1.976-.896 2.393-1.902 2.538-1.311.189-1.959.795-1.959 1.831 0 1.101-.718 1.831-1.8 1.831-1.072 0-1.8.728-1.8 1.8s-.728 1.8-1.8 1.8-1.8.728-1.8 1.8-.728 1.8-1.8 1.8c-1.082 0-1.8.73-1.8 1.831 0 1.048-.652 1.644-2 1.831-.695.096-1.122.504-1.4 1.338-.607 1.821-.957 2.2-2.034 2.2-.714 0-1.093.303-1.376 1.1-.662 1.868-1.035 2.293-2.197 2.5-.85.152-1.236.539-1.59 1.6-.351 1.052-.802 1.511-1.815 1.846-1 .331-1.464.796-1.8 1.8-.334.998-.801 1.469-1.78 1.794-.988.327-1.441.788-1.768 1.8-.332 1.025-.775 1.468-1.8 1.8-1.005.324-1.476.783-1.8 1.752-.329.983-.792 1.426-1.84 1.761-1.034.33-1.436.709-1.538 1.447-.187 1.348-.783 2-1.831 2-1.111 0-1.831.72-1.831 1.831 0 1.036-.648 1.642-1.959 1.831-1.033.149-1.464.721-1.818 2.413-.179.852-.486 1.1-1.484 1.2-1.321.131-1.741.611-2.123 2.425-.187.889-.45 1.1-1.375 1.1-1.365 0-1.923.583-2.106 2.2-.112.999-.336 1.223-1.335 1.335-1.527.173-2.2.733-2.2 1.834s-.718 1.831-1.8 1.831c-1.072 0-1.8.728-1.8 1.8s-.728 1.8-1.8 1.8-1.8.728-1.8 1.8-.728 1.8-1.8 1.8c-1.1 0-1.8.734-1.8 1.889 0 .641-.341 1.063-1.1 1.362-2.021.798-2.299 1.025-2.438 1.99-.193 1.333-.798 1.959-1.897 1.959-.527 0-1.124.35-1.365.8-.235.44-.325.8-.2.8.78 0-.849 1.642-1.9 1.914-1.044.271-1.345.603-1.628 1.798-.296 1.253-.545 1.503-1.714 1.722-1.543.29-1.637.385-1.92 1.943-.111.617-.316 1.234-.454 1.372-.26.261-91.716.759-93.263.508-.714-.116-.902-.45-1-1.783-.117-1.584-.182-1.655-1.921-2.074-1.599-.385-1.813-.57-1.92-1.651-.103-1.036-.342-1.273-1.6-1.583-1.246-.308-1.501-.556-1.615-1.566-.179-1.587-.738-2.199-2.014-2.206-1.08-.006-2.146-.486-2.085-.939.239-1.789-.001-2.158-1.566-2.409-1.49-.238-1.6-.346-1.6-1.571 0-1.653-.611-2.275-2.237-2.275-1.349 0-1.763-.525-1.763-2.233 0-.756-.211-.967-.967-.967-1.708 0-2.233-.414-2.233-1.763 0-1.549-.615-2.237-2-2.237-1.33 0-2-.679-2-2.029 0-.938-.196-1.1-1.6-1.325-1.49-.238-1.6-.346-1.6-1.571 0-1.605-.608-2.275-2.066-2.275-1.177 0-1.934-.929-1.934-2.374 0-.638-.255-.826-1.12-.826-1.407 0-2.08-.657-2.08-2.031 0-1.295-.605-1.854-2.2-2.034-1.032-.116-1.228-.331-1.4-1.535-.184-1.287-.321-1.41-1.7-1.524-.825-.068-1.515-.248-1.533-.4-.364-3.055-.802-3.676-2.592-3.676-1.244 0-1.334-.093-1.451-1.5-.117-1.419-.205-1.507-1.624-1.624-1.407-.117-1.5-.207-1.5-1.451 0-1.523-.62-2.186-2.166-2.314-1.316-.109-1.721-.551-1.899-2.073-.103-.889-.371-1.197-1.135-1.305-1.719-.245-2-.475-2-1.64 0-1.403-.65-2.091-1.98-2.099-1.054-.006-2.114-.491-2.054-.939.208-1.557-.037-2.255-.792-2.255-1.445 0-2.374-.757-2.374-1.934 0-1.404-.662-2.066-2.066-2.066-1.177 0-1.934-.929-1.934-2.374 0-.568-.258-.826-.826-.826-1.445 0-2.374-.757-2.374-1.934 0-1.385-.659-2.066-2-2.066-1.344 0-2-.682-2-2.08 0-.96-.16-1.12-1.12-1.12-1.398 0-2.08-.656-2.08-2 0-1.331-.68-2-2.031-2-.912 0-2.377-1.035-2.069-1.461.546-.757-.031-1.739-1.02-1.739-1.398 0-2.08-.656-2.08-2 0-1.385-.689-2-2.24-2-1.144 0-1.317-.156-1.626-1.461-.263-1.11-.577-1.496-1.308-1.608-1.319-.201-1.998-.84-1.828-1.721.202-1.051-.744-2.172-1.875-2.222-1.39-.061-1.923-.504-1.923-1.598 0-1.028-1.01-1.79-2.374-1.79-.454 0-.849-.135-.877-.3a28.789 28.789 0 0 1-.144-1.165c-.175-1.634-.54-2.022-2.145-2.279-1.456-.233-1.621-.38-1.735-1.544-.109-1.122-.317-1.332-1.625-1.639-1.347-.317-1.5-.483-1.5-1.633 0-1.5-.61-2.24-1.847-2.24-1.568 0-2.153-.44-2.153-1.619 0-1.307-.248-1.526-1.868-1.65-1.043-.079-1.19-.251-1.274-1.491-.119-1.774-.673-2.44-2.027-2.44-1.318 0-2.031-.664-2.031-1.893 0-.947-.152-1.054-2.1-1.481-.934-.205-1.1-.444-1.1-1.585 0-1.611-.542-2.132-2.402-2.308-1.26-.12-1.418-.272-1.598-1.533-.178-1.244-.356-1.422-1.6-1.6-1.261-.18-1.413-.338-1.533-1.598-.175-1.851-.697-2.402-2.273-2.402-1.334 0-1.794-.52-1.794-2.025 0-.504-.371-.841-1.1-1.001-1.988-.435-2.1-.536-2.1-1.881 0-1.729-.61-2.293-2.48-2.293-.836 0-1.499-.135-1.473-.3.27-1.708-.1-2.5-1.167-2.5-1.467 0-2.08-.665-2.08-2.256 0-1.483-.442-1.876-2.058-1.83-1.218.035-1.942-.819-1.942-2.288 0-.674-.252-.826-1.373-.826-1.318 0-2.222-1.009-1.7-1.896.531-.901-.55-2.104-1.891-2.104-1.295 0-1.946-.441-2.065-1.4-.027-.22-.077-.704-.11-1.075-.041-.452-.489-.716-1.361-.8-1.164-.112-1.314-.271-1.433-1.523-.176-1.859-.697-2.402-2.302-2.402-1.13 0-2.645-1.289-2.233-1.9.426-.63-.148-1.27-1.232-1.375-1.164-.112-1.314-.271-1.433-1.523-.17-1.8-.695-2.402-2.092-2.402-1.327 0-1.491-.206-1.792-2.253-.145-.978-.604-1.86-1.25-2.398-1.099-.914-2.015-4.144-1.179-4.155.254-.004.212-.155-.099-.352-.461-.291-.461-.379 0-.562.797-.317-2.479-.249-3.644.075" fill="#4c4c4c"></path>
        <path d="M109.6 1c0 .933-.133 1-2 1h-2v3.6H102v3.681l-1.8-.144-1.8-.143v3.887l-1.8-.144-1.8-.143v3.887l-1.8-.144-1.8-.143v3.89l-1.822-.224c-1.553-.19-1.812-.122-1.754.459.297 2.977.079 3.37-1.791 3.221-.971-.077-1.76-.05-1.752.06.007.11-.008.944-.034 1.853L84 27.107l-1.701-.064-1.701-.063-.095 1.573c-.117 1.93-.094 1.907-1.989 1.984l-1.545.063.049 1.7.05 1.7-1.634.047c-.899.026-1.724.041-1.834.034-.11-.008-.137.781-.06 1.752l.141 1.767-1.741.047c-.957.026-1.83.041-1.94.034-.11-.008-.137.781-.06 1.752l.141 1.767h-3.887l.143 1.8.144 1.8h-3.887l.143 1.8.144 1.8h-3.887l.143 1.8.144 1.8H55.6v3.6H52v3.681l-1.8-.144-1.8-.143v3.886l-1.8-.18-1.8-.18v3.961l-1.8-.144-1.8-.143v3.89l-1.753-.215-1.753-.215-.022 1.571c-.03 2.14-.325 2.473-2.046 2.309-1.471-.14-1.482-.13-1.575 1.45-.113 1.926.05 1.76-1.87 1.9-1.537.113-1.587.163-1.679 1.679-.115 1.91-.027 1.824-1.978 1.941-.881.053-1.601.276-1.6.496.014 2.951-.018 3-1.942 3h-1.817l.059 5.2.059 5.2h1.759c1.768 0 2.201.793 1.805 3.3-.026.165.763.3 1.753.3h1.8v3.6H34l.047 1.5c.026.825.026 1.635 0 1.8-.026.165.763.3 1.753.3h1.8v3.6h3.6v3.6h3.6v3.6h3.6v1.8c0 .99.135 1.779.3 1.753.165-.026.975-.026 1.8 0l1.5.047v1.8c0 .99.135 1.779.3 1.753.165-.026.975-.026 1.8 0l1.5.047v1.831c0 1.813.012 1.83 1.3 1.759 2.282-.125 2.314-.1 2.203 1.71L59 130.2l1.919.123 1.919.122-.119 1.664-.119 1.664 1.7-.053c1.836-.057 1.696-.272 1.859 2.864.033.626.337.788 1.508.8 1.801.02 1.896.11 2.028 1.943.111 1.558.17 1.599 2.205 1.533 1.267-.041 1.701 1.002 1.347 3.24-.054.344.424.41 2.253.31 1.269-.07 1.708 1.004 1.347 3.29-.026.165.763.3 1.753.3h1.8v3.6H84l.047 1.5c.026.825.026 1.635 0 1.8-.026.165.763.3 1.753.3h1.8v3.6h3.6v1.8c0 .99.135 1.779.3 1.753.165-.026.975-.026 1.8 0l1.5.047v3.6h3.6v1.8c0 .99.135 1.779.3 1.753.165-.026.975-.026 1.8 0l1.5.047v1.8c0 .99.135 1.779.3 1.753.165-.026.975-.026 1.8 0l1.5.047v3.6h1.85c1.825 0 1.847.016 1.62 1.151-.128.637-.016 1.441.25 1.802.442.6 10.995.644 133.88.549l133.4-.102v-2.8c0-1.54-.18-3.06-.4-3.377-.295-.425-.268-.497.1-.276.275.165.5.11.5-.123 0-.523-.67-.558-.983-.052-.221.358-2.032.346-2.395-.016-.097-.097-.219-1.003-.271-2.013-.091-1.759-.147-1.837-1.323-1.851a35.46 35.46 0 0 1-1.728-.053c-.317-.025-.5-.674-.5-1.779v-1.74l-1.8.18-1.8.18v-3.886l-1.8.143-1.8.144v-3.983l-1.8.203-1.8.203V155.6h-3.6V152h-3.6v-3.6H348v-3.6h-3.681l.144-1.8.143-1.8h-3.866l.116-1.886.116-1.886-1.929.119-1.929.119.146-1.833.146-1.833h-3.859l.161-1.8.161-1.8h-1.735c-1.758 0-2.068-.552-1.807-3.223.012-.123-.726-.268-1.641-.322-2.007-.118-1.823.061-1.938-1.893-.094-1.586-.124-1.616-1.71-1.71-1.971-.116-1.882-.026-1.909-1.93-.018-1.315-.157-1.567-.875-1.586-2.713-.072-2.654-.031-2.654-1.85v-1.714l-1.8.068-1.8.067v-3.809l-1.8.203-1.8.203v-4.006l-1.8.203-1.8.203V105.6h-3.6V102h-3.6v-3.6H298v-3.6h-3.681l.144-1.8.143-1.8h-3.887l.144-1.8.143-1.8h-3.887l.144-1.8.143-1.8h-3.887l.144-1.8.143-1.8h-3.831l.16-1.725.159-1.725-1.635-.096c-1.991-.118-1.897-.025-1.973-1.94-.06-1.535-.095-1.57-1.662-1.662-1.955-.116-1.868-.027-1.895-1.93-.018-1.315-.157-1.567-.875-1.586-2.711-.072-2.654-.033-2.654-1.839v-1.703l-1.8.143-1.8.144v-3.983l-1.8.203-1.8.203v-3.91l-1.8.143-1.8.144V55.6h-3.6V52h-3.6v-3.6H248v-3.6h-3.681l.144-1.8.143-1.8h-3.887l.144-1.8.143-1.8h-3.887l.144-1.8.143-1.8h-3.887l.144-1.8.143-1.8h-3.886l.173-1.726.172-1.726-1.621-.095c-1.966-.116-1.831.016-1.947-1.909-.093-1.542-.135-1.584-1.644-1.644-1.89-.075-1.789.028-1.906-1.949-.092-1.557-.147-1.619-1.321-1.495-1.735.184-2.271-.305-2.296-2.095l-.021-1.561-1.755.14-1.754.141-.063-1.541a72.613 72.613 0 0 1-.061-1.94c.001-.227-.75-.339-1.737-.26l-1.739.141V8.994l-1.8.143-1.8.144V5.6h-3.6l-.06-2.9c-.033-1.595-.135-2.405-.227-1.8-.244 1.615-3.713 1.708-3.713.1V0h-91.6v1m92.518 2.06c1.245.205 1.619.495 2.086 1.611.378.905.982 1.505 1.801 1.791.88.306 1.298.755 1.46 1.563.267 1.333 1.127 2.171 2.584 2.516.759.18 1.115.579 1.288 1.443.176.882.605 1.348 1.637 1.779.899.376 1.487.94 1.648 1.581.294 1.174 1.259 2.115 2.377 2.32.446.082 1.101.787 1.481 1.593.44.935 1.051 1.539 1.727 1.709.696.175 1.243.735 1.636 1.676.404.967 1.036 1.599 2 2.002.901.376 1.551.993 1.8 1.707.233.668.908 1.347 1.673 1.684.706.311 1.347.925 1.425 1.365.196 1.107 1.136 2.082 2.284 2.37.589.148 1.276.852 1.764 1.808.493.967 1.129 1.614 1.664 1.693.476.071 1.019.444 1.206.829.188.385.492 1.015.677 1.4.185.385.933.988 1.661 1.339.751.362 1.602 1.221 1.964 1.984.377.792 1.027 1.435 1.584 1.566.568.133 1.208.778 1.603 1.614.41.868 1.204 1.651 2.107 2.076.936.441 1.541 1.051 1.711 1.727.165.658.725 1.239 1.515 1.571.741.312 1.513 1.077 1.889 1.873.378.8 1.199 1.611 2.027 2.002.841.397 1.479 1.032 1.609 1.603.125.542.781 1.229 1.539 1.611.728.366 1.623 1.266 1.989 2 .401.803 1.263 1.614 2.166 2.037.988.463 1.5.972 1.5 1.492 0 .517.549 1.069 1.594 1.602.98.5 1.687 1.185 1.836 1.778.288 1.148 1.263 2.088 2.37 2.284.44.078 1.054.719 1.365 1.425.337.765 1.016 1.44 1.684 1.673.722.252 1.332.901 1.72 1.831.413.988 1.039 1.623 1.993 2.022.764.319 1.626 1.065 1.914 1.657.288.592 1.064 1.374 1.724 1.737.66.363 1.264 1.006 1.343 1.428.207 1.11.82 1.742 2.286 2.354.71.297 1.535 1.039 1.831 1.649.297.609 1.04 1.391 1.65 1.737.611.345 1.421 1.253 1.8 2.016.428.862 1.07 1.474 1.69 1.612.614.137 1.267.753 1.692 1.598.384.763 1.271 1.648 1.994 1.989.717.339 1.369.975 1.45 1.414.206 1.125 1.252 2.199 2.139 2.199.433 0 1.097.584 1.563 1.375.447.756 1.431 1.74 2.187 2.187.791.466 1.375 1.13 1.375 1.563 0 .931 1.06 1.887 2.46 2.219.708.168 1.201.655 1.485 1.469.282.811.837 1.362 1.659 1.648.881.307 1.299.755 1.461 1.564.254 1.272 1.154 2.222 2.303 2.434.422.077 1.062.681 1.421 1.341.36.66 1.235 1.46 1.944 1.777.806.361 1.382.961 1.534 1.6.344 1.447.818 1.934 2.169 2.231.853.187 1.342.644 1.759 1.642.384.919.985 1.524 1.794 1.806.811.283 1.3.777 1.469 1.484.35 1.468.818 1.969 2.105 2.252.741.163 1.295.668 1.672 1.526.334.757 1.09 1.513 1.847 1.847.858.377 1.363.931 1.526 1.672.283 1.29.783 1.755 2.265 2.109.631.15 1.187.627 1.348 1.155.392 1.287 1.383 2.299 2.251 2.299.455 0 .901.431 1.138 1.1.657 1.856 1.01 2.254 2.284 2.585.859.222 1.353.673 1.641 1.5.27.775.89 1.382 1.799 1.761 1.013.424 1.458.905 1.652 1.789.305 1.388.783 1.852 2.274 2.207.701.167 1.201.657 1.475 1.444.265.759.878 1.38 1.691 1.712.897.366 1.408.932 1.724 1.911.342 1.058.776 1.496 1.812 1.831.933.302 1.562.866 2.001 1.795.352.745.999 1.421 1.438 1.503 1.19.221 1.799.851 1.799 1.862 0 1.044.524 1.539 2.2 2.079.678.219 1.262.721 1.341 1.154.199 1.079 1.15 2.053 2.282 2.337.622.156 1.058.631 1.226 1.336.361 1.513.82 2.002 2.157 2.295.85.187 1.265.602 1.592 1.594.306.927.808 1.468 1.625 1.753 2.207.77 2.356 3.181.285 4.631-.962.675-252.822.945-258.818.279-2.396-.267-2.871-.468-4.103-1.736-.83-.854-1.949-1.538-2.767-1.692-.96-.18-1.446-.525-1.611-1.144-.906-3.392-1.139-3.784-2.951-4.96-1.022-.663-2.353-1.326-2.958-1.473-.761-.186-1.1-.524-1.1-1.099 0-1.99-1.901-4.302-4.4-5.351-2.254-.945-2.8-1.35-2.8-2.076 0-1.516-2.507-4.392-4.495-5.158-1.793-.69-2.098-.993-2.967-2.954-1.285-2.897-3.129-4.415-5.365-4.415-.487 0-.962-.423-1.238-1.1-1.191-2.926-1.551-3.57-2.409-4.306-1.214-1.041-2.582-1.794-3.259-1.794-.746 0-1.708-1.181-2.015-2.477-.475-2-3.022-4.227-5.564-4.865-.815-.205-1.16-.639-1.495-1.883-.568-2.109-3.061-4.601-5.172-5.169-.987-.266-1.621-.673-1.621-1.041 0-2.149-3.62-5.888-6.029-6.228-.674-.095-1.013-.434-1.108-1.108-.286-2.027-2.445-4.439-5.151-5.753-1.405-.683-1.915-1.206-2.308-2.369-.707-2.09-2.743-3.903-6.143-5.469-.296-.136-.782-.955-1.079-1.82-.856-2.489-1.866-3.526-4.214-4.325-2.903-.988-3.246-1.513-2.933-4.483.283-2.68 1.034-4.21 2.065-4.21.376 0 1.359-.675 2.185-1.5a258.45 258.45 0 0 1 2.538-2.5c.569-.55 2.092-2.125 3.384-3.5 1.292-1.375 2.505-2.5 2.696-2.5.511 0 2.497-2.165 2.497-2.722 0-.263.186-.478.413-.478.228 0 .993-.618 1.7-1.373a81.923 81.923 0 0 1 1.757-1.83 105.74 105.74 0 0 0 5.33-5.519c1.21-1.339 2.409-2.444 2.664-2.456.256-.012.933-.607 1.504-1.322.572-.715 1.232-1.48 1.467-1.7 1.686-1.58 2.765-2.848 2.765-3.25 0-.259.519-.653 1.153-.874.635-.221 1.49-.871 1.9-1.443 1.138-1.588 5.187-5.833 5.563-5.833.547 0 2.184-1.699 2.184-2.266 0-.29.629-.933 1.398-1.43.769-.497 1.504-1.226 1.632-1.619.128-.393.954-1.17 1.835-1.726s1.902-1.54 2.269-2.186c.366-.646.936-1.266 1.266-1.378.33-.112 1.006-.786 1.502-1.499.497-.713 1.577-1.754 2.4-2.314.824-.559 1.73-1.498 2.013-2.086.284-.588 1.024-1.369 1.646-1.737.622-.367 1.435-1.183 1.807-1.813.373-.63.903-1.146 1.178-1.146.275 0 1.75-1.365 3.277-3.033 1.527-1.669 3.026-3.244 3.331-3.5C96.008 16.599 107.2 5.085 107.2 4.628c0-.806.561-1.078 2.94-1.427 2.487-.364 89.819-.498 91.978-.141" fill="#772626"></path>
        <path d="M110.14 3.201c-2.379.349-2.94.621-2.94 1.427 0 .457-11.192 11.971-13.646 14.039-.305.256-1.804 1.831-3.331 3.5-1.527 1.668-3.002 3.033-3.277 3.033-.275 0-.805.516-1.178 1.146-.372.63-1.185 1.446-1.807 1.813-.622.368-1.362 1.149-1.646 1.737-.283.588-1.189 1.527-2.013 2.086-.823.56-1.903 1.601-2.4 2.314-.496.713-1.172 1.387-1.502 1.499-.33.112-.9.732-1.266 1.378-.367.646-1.388 1.63-2.269 2.186-.881.556-1.707 1.333-1.835 1.726-.128.393-.863 1.122-1.632 1.619-.769.497-1.398 1.14-1.398 1.43 0 .567-1.637 2.266-2.184 2.266-.376 0-4.425 4.245-5.563 5.833-.41.572-1.265 1.222-1.9 1.443-.634.221-1.153.615-1.153.874 0 .402-1.079 1.67-2.765 3.25-.235.22-.895.985-1.467 1.7-.571.715-1.248 1.31-1.504 1.322-.255.012-1.454 1.117-2.664 2.456a105.74 105.74 0 0 1-5.33 5.519 81.923 81.923 0 0 0-1.757 1.83c-.707.755-1.472 1.373-1.7 1.373-.227 0-.413.215-.413.478 0 .557-1.986 2.722-2.497 2.722-.191 0-1.404 1.125-2.696 2.5-1.292 1.375-2.815 2.95-3.384 3.5-.57.55-1.712 1.675-2.538 2.5-.826.825-1.809 1.5-2.185 1.5-1.031 0-1.782 1.53-2.065 4.21-.313 2.97.03 3.495 2.933 4.483 2.348.799 3.358 1.836 4.214 4.325.297.865.783 1.684 1.079 1.82 3.4 1.566 5.436 3.379 6.143 5.469.393 1.163.903 1.686 2.308 2.369 2.706 1.314 4.865 3.726 5.151 5.753.095.674.434 1.013 1.108 1.108 2.409.34 6.029 4.079 6.029 6.228 0 .368.634.775 1.621 1.041 2.111.568 4.604 3.06 5.172 5.169.335 1.244.68 1.678 1.495 1.883 2.542.638 5.089 2.865 5.564 4.865.307 1.296 1.269 2.477 2.015 2.477.677 0 2.045.753 3.259 1.794.858.736 1.218 1.38 2.409 4.306.276.677.751 1.1 1.238 1.1 2.236 0 4.08 1.518 5.365 4.415.869 1.961 1.174 2.264 2.967 2.954 1.988.766 4.495 3.642 4.495 5.158 0 .726.546 1.131 2.8 2.076 2.499 1.049 4.4 3.361 4.4 5.351 0 .575.339.913 1.1 1.099.605.147 1.936.81 2.958 1.473 1.812 1.176 2.045 1.568 2.951 4.96.165.619.651.964 1.611 1.144.818.154 1.937.838 2.767 1.692 1.232 1.268 1.707 1.469 4.103 1.736 5.996.666 257.856.396 258.818-.279 2.071-1.45 1.922-3.861-.285-4.631-.817-.285-1.319-.826-1.625-1.753-.327-.992-.742-1.407-1.592-1.594-1.337-.293-1.796-.782-2.157-2.295-.168-.705-.604-1.18-1.226-1.336-1.132-.284-2.083-1.258-2.282-2.337-.079-.433-.663-.935-1.341-1.154-1.676-.54-2.2-1.035-2.2-2.079 0-1.011-.609-1.641-1.799-1.862-.439-.082-1.086-.758-1.438-1.503-.439-.929-1.068-1.493-2.001-1.795-1.036-.335-1.47-.773-1.812-1.831-.316-.979-.827-1.545-1.724-1.911-.813-.332-1.426-.953-1.691-1.712-.274-.787-.774-1.277-1.475-1.444-1.491-.355-1.969-.819-2.274-2.207-.194-.884-.639-1.365-1.652-1.789-.909-.379-1.529-.986-1.799-1.761-.288-.827-.782-1.278-1.641-1.5-1.274-.331-1.627-.729-2.284-2.585-.237-.669-.683-1.1-1.138-1.1-.868 0-1.859-1.012-2.251-2.299-.161-.528-.717-1.005-1.348-1.155-1.482-.354-1.982-.819-2.265-2.109-.163-.741-.668-1.295-1.526-1.672-.757-.334-1.513-1.09-1.847-1.847-.377-.858-.931-1.363-1.672-1.526-1.287-.283-1.755-.784-2.105-2.252-.169-.707-.658-1.201-1.469-1.484-.809-.282-1.41-.887-1.794-1.806-.417-.998-.906-1.455-1.759-1.642-1.351-.297-1.825-.784-2.169-2.231-.152-.639-.728-1.239-1.534-1.6-.709-.317-1.584-1.117-1.944-1.777-.359-.66-.999-1.264-1.421-1.341-1.149-.212-2.049-1.162-2.303-2.434-.162-.809-.58-1.257-1.461-1.564-.822-.286-1.377-.837-1.659-1.648-.284-.814-.777-1.301-1.485-1.469-1.4-.332-2.46-1.288-2.46-2.219 0-.433-.584-1.097-1.375-1.563-.756-.447-1.74-1.431-2.187-2.187-.466-.791-1.13-1.375-1.563-1.375-.887 0-1.933-1.074-2.139-2.199-.081-.439-.733-1.075-1.45-1.414-.723-.341-1.61-1.226-1.994-1.989-.425-.845-1.078-1.461-1.692-1.598-.62-.138-1.262-.75-1.69-1.612-.379-.763-1.189-1.671-1.8-2.016-.61-.346-1.353-1.128-1.65-1.737-.296-.61-1.121-1.352-1.831-1.649-1.466-.612-2.079-1.244-2.286-2.354-.079-.422-.683-1.065-1.343-1.428-.66-.363-1.436-1.145-1.724-1.737-.288-.592-1.15-1.338-1.914-1.657-.954-.399-1.58-1.034-1.993-2.022-.388-.93-.998-1.579-1.72-1.831-.668-.233-1.347-.908-1.684-1.673-.311-.706-.925-1.347-1.365-1.425-1.107-.196-2.082-1.136-2.37-2.284-.149-.593-.856-1.278-1.836-1.778-1.045-.533-1.594-1.085-1.594-1.602 0-.52-.512-1.029-1.5-1.492-.903-.423-1.765-1.234-2.166-2.037-.366-.734-1.261-1.634-1.989-2-.758-.382-1.414-1.069-1.539-1.611-.13-.571-.768-1.206-1.609-1.603-.828-.391-1.649-1.202-2.027-2.002-.376-.796-1.148-1.561-1.889-1.873-.79-.332-1.35-.913-1.515-1.571-.17-.676-.775-1.286-1.711-1.727-.903-.425-1.697-1.208-2.107-2.076-.395-.836-1.035-1.481-1.603-1.614-.557-.131-1.207-.774-1.584-1.566-.362-.763-1.213-1.622-1.964-1.984-.728-.351-1.476-.954-1.661-1.339-.185-.385-.489-1.015-.677-1.4-.187-.385-.73-.758-1.206-.829-.535-.079-1.171-.726-1.664-1.693-.488-.956-1.175-1.66-1.764-1.808-1.148-.288-2.088-1.263-2.284-2.37-.078-.44-.719-1.054-1.425-1.365-.765-.337-1.44-1.016-1.673-1.684-.249-.714-.899-1.331-1.8-1.707-.964-.403-1.596-1.035-2-2.002-.393-.941-.94-1.501-1.636-1.676-.676-.17-1.287-.774-1.727-1.709-.38-.806-1.035-1.511-1.481-1.593-1.118-.205-2.083-1.146-2.377-2.32-.161-.641-.749-1.205-1.648-1.581-1.032-.431-1.461-.897-1.637-1.779-.173-.864-.529-1.263-1.288-1.443-1.457-.345-2.317-1.183-2.584-2.516-.162-.808-.58-1.257-1.46-1.563-.819-.286-1.423-.886-1.801-1.791-.467-1.116-.841-1.406-2.086-1.611-2.159-.357-89.491-.223-91.978.141m93.216 3.807c1.234 1.215 2.244 2.33 2.244 2.479 0 .496 2.143 2.513 2.67 2.513.286 0 .947.676 1.468 1.502.522.826 1.384 1.735 1.916 2.02.533.285 1.199 1.039 1.48 1.675.282.636 1.05 1.392 1.706 1.68.657.288 1.541 1.109 1.965 1.826.425.717 1.194 1.496 1.709 1.73.515.235 1.257 1.022 1.649 1.75.391.727 1.101 1.53 1.577 1.785.476.255 1.855 1.571 3.063 2.925 2.254 2.526 3.578 3.886 17.463 17.942 7.156 7.243 32.146 32.003 33.877 33.565.365.33 1.129 1.185 1.696 1.9.568.715 1.256 1.3 1.53 1.3.273 0 1.066.707 1.76 1.572.695.864 1.606 1.68 2.024 1.813.419.133.981.774 1.251 1.425.27.651 1.057 1.533 1.749 1.961.692.428 1.674 1.339 2.181 2.025.506.685 1.32 1.428 1.807 1.65.487.222 1.125.945 1.418 1.607.293.662 1.125 1.486 1.848 1.831.723.345 1.506 1.046 1.739 1.558.234.512 1.056 1.342 1.829 1.845.772.502 1.617 1.425 1.878 2.05.261.625 1.076 1.424 1.811 1.774.735.35 1.336.833 1.336 1.071 0 .239.466.881 1.035 1.426.57.546 1.515 1.503 2.1 2.127.586.625 2.217 2.245 3.626 3.6 1.408 1.356 2.938 2.894 3.4 3.417 1.656 1.88 3.226 3.248 3.728 3.248.281 0 .511.202.511.45 0 .752 9.153 9.95 9.902 9.95.22 0 .625.54.898 1.2.273.66.629 1.2.791 1.2.251 0 4.631 3.96 5.809 5.253 2.577 2.829 5.884 5.92 6.562 6.135.469.149 1.109.885 1.423 1.637a4.009 4.009 0 0 0 1.911 2.006c.737.351 1.567 1.153 1.845 1.781.278.628 1.049 1.377 1.714 1.665.717.31 1.433 1.057 1.761 1.836.339.802 1.036 1.516 1.793 1.834.682.287 1.588 1.094 2.014 1.795.426.701 1.201 1.468 1.721 1.705.52.237 1.242 1.053 1.605 1.814.402.844 1.165 1.596 1.955 1.93.755.318 1.511 1.043 1.811 1.735.283.654 1.019 1.398 1.636 1.654.629.26 1.416 1.08 1.79 1.864.412.865 1.11 1.555 1.825 1.804.696.243 1.356.881 1.653 1.597.271.656 1.008 1.459 1.637 1.784 1.539.796 1.44 1.217-.356 1.514-2.141.354-255.416.305-255.909-.049-.225-.162-.73-.797-1.121-1.412-.392-.615-1.171-1.292-1.732-1.506-1.262-.479-4.512-3.757-5.331-5.376-.334-.66-1.162-1.47-1.841-1.8-1.367-.665-4.966-4.224-4.966-4.911 0-.617-1.638-2.289-2.244-2.289-.675 0-4.582-3.992-5.439-5.558-.376-.687-1.127-1.418-1.668-1.623-1.271-.484-4.584-3.797-5.068-5.068-.205-.541-.933-1.292-1.617-1.668-1.736-.954-4.809-3.973-5.547-5.449-.339-.679-1.157-1.504-1.817-1.834-1.578-.79-4.642-3.839-5.403-5.376-.331-.671-1.149-1.49-1.818-1.821-1.621-.803-4.527-3.696-5.332-5.307-.356-.713-1.207-1.566-1.891-1.896-1.54-.742-4.603-3.827-5.244-5.281-.263-.594-1.056-1.38-1.764-1.746-1.653-.855-4.835-4.05-5.456-5.479-.264-.608-.978-1.324-1.586-1.59-1.428-.624-4.986-4.182-5.61-5.61-.266-.608-.982-1.32-1.59-1.582-1.46-.629-4.55-3.691-5.309-5.261-.344-.711-1.288-1.602-2.2-2.073-2.468-1.277-2.413-6.178.069-6.178.298 0 1.035-.706 1.638-1.569s1.501-1.76 1.997-1.992c.495-.233 1.242-.984 1.66-1.671.417-.686 1.323-1.591 2.013-2.011.689-.419 1.382-1.108 1.54-1.531.157-.423 1.036-1.312 1.952-1.976.916-.663 1.779-1.563 1.918-1.999.138-.436.875-1.161 1.637-1.61.762-.45 1.579-1.243 1.816-1.763.237-.52.974-1.267 1.638-1.659.664-.392 1.562-1.314 1.995-2.048.434-.735 1.14-1.447 1.57-1.584.43-.136 1.085-.729 1.457-1.317.372-.589 1.022-1.34 1.445-1.67a16.11 16.11 0 0 0 1.519-1.4c.828-.884 5.961-6.052 6.953-7 .345-.33 1.149-1.14 1.786-1.8 1.696-1.756 2.465-2.521 3.743-3.724.629-.592 1.529-1.5 2-2.019.471-.519 2.117-2.177 3.657-3.685s3.07-3.029 3.4-3.379C80.893 35.517 84.533 32 84.823 32c.196 0 .642-.553.992-1.228.349-.676 1.223-1.575 1.942-2 .719-.424 1.525-1.176 1.791-1.671.266-.496 1.114-1.312 1.883-1.814.769-.503 1.585-1.313 1.814-1.8.229-.488 1.123-1.38 1.986-1.983.863-.603 1.569-1.344 1.569-1.647 0-.303.727-1.032 1.616-1.62.889-.588 1.804-1.482 2.034-1.987.23-.505.936-1.224 1.57-1.598.633-.374 1.452-1.19 1.82-1.812.368-.622 1.171-1.428 1.785-1.791.614-.363 1.498-1.278 1.965-2.034.468-.755 1.196-1.484 1.619-1.618.424-.134 1.147-.774 1.608-1.421l.837-1.176h89.458l2.244 2.208" fill="#c83632"></path>
        <path d="M28.949 222.4c.103 2.976 1.681 5.615 4.209 7.037.892.501 1.509 1.243 1.8 2.163.344 1.09.683 1.428 1.531 1.525.783.091 1.333.561 1.96 1.677.48.853 1.365 1.755 1.968 2.005.736.305 1.174.847 1.335 1.654.187.933.591 1.338 1.816 1.819 1.025.403 1.738 1.01 2.039 1.737.254.614 1.018 1.386 1.696 1.714a3.23 3.23 0 0 1 1.665 1.933c.325 1.005.773 1.446 1.81 1.782.911.294 1.578.866 1.966 1.685.323.682 1.188 1.525 1.922 1.873.949.451 1.334.902 1.334 1.566 0 1.098.585 1.66 2.133 2.049.729.183 1.349.744 1.749 1.584.341.715 1.162 1.557 1.823 1.87.768.363 1.365 1.058 1.649 1.916.327.988.797 1.464 1.763 1.787.725.242 1.54.886 1.812 1.431.271.545 1.067 1.352 1.767 1.792.701.441 1.471 1.376 1.712 2.078.318.926.815 1.401 1.811 1.729.93.307 1.575.882 2.004 1.787.357.751 1.144 1.545 1.805 1.819.645.267 1.172.709 1.172.983 0 .856 1.576 2.546 2.498 2.678.485.07 1.082.531 1.327 1.024.65 1.309 1.817 2.503 2.447 2.503.301 0 .736.495.966 1.099.563 1.481 1.536 2.501 2.384 2.501.385 0 1.064.619 1.51 1.375.447.757 1.345 1.651 1.996 1.988.664.343 1.373 1.152 1.613 1.839.281.806.885 1.417 1.767 1.785.737.308 1.55 1.022 1.808 1.587.257.565 1.041 1.377 1.742 1.803.701.426 1.508 1.332 1.794 2.012.307.731 1.028 1.452 1.759 1.759.68.286 1.587 1.094 2.013 1.796.427.702 1.221 1.445 1.765 1.652.566.215 1.244.987 1.586 1.806.399.955.994 1.568 1.791 1.846.663.231 1.552 1.025 2.003 1.79.446.756 1.261 1.545 1.81 1.754.561.213 1.248.976 1.567 1.74.375.898.981 1.504 1.785 1.784.693.242 1.49.951 1.85 1.647.348.673 1.153 1.492 1.789 1.821.635.329 1.487 1.277 1.893 2.107.479.98 1.057 1.554 1.651 1.639.542.077 1.309.756 1.887 1.672.536.848 1.467 1.78 2.07 2.07.602.291 1.2.978 1.328 1.528.146.628.805 1.299 1.773 1.804.846.442 1.685 1.199 1.864 1.683.179.483 1.032 1.324 1.895 1.869.925.585 1.677 1.423 1.833 2.044.175.696.73 1.247 1.641 1.628.762.318 1.651 1.107 1.992 1.767.339.655 1.128 1.456 1.753 1.779.626.324 1.374 1.159 1.663 1.856.332.804 1.018 1.474 1.87 1.831.751.313 1.513 1.003 1.725 1.56.209.549.998 1.364 1.754 1.81.765.451 1.559 1.34 1.79 2.003.27.774.887 1.39 1.756 1.753.737.308 1.55 1.022 1.808 1.587.257.565 1.041 1.377 1.742 1.803.701.426 1.509 1.333 1.796 2.015.324.771.973 1.398 1.713 1.656.662.231 1.552 1.026 2.001 1.787.445.755 1.276 1.584 1.847 1.845.571.26 1.29 1.075 1.597 1.811a3.493 3.493 0 0 0 1.897 1.897c.736.307 1.551 1.026 1.811 1.597.261.571 1.105 1.411 1.877 1.866.772.455 1.403 1.142 1.403 1.527 0 .831 1.096 1.883 2.168 2.081.422.077 1.064.681 1.427 1.341.362.66 1.225 1.56 1.917 2 .692.44 1.455 1.375 1.696 2.077.318.926.815 1.401 1.811 1.729.933.308 1.575.882 2.009 1.796.379.799 1.094 1.502 1.767 1.736.63.22 1.256.807 1.415 1.328.395 1.294 1.38 2.334 2.212 2.334.385 0 1.072.631 1.527 1.403.455.772 1.295 1.616 1.866 1.877.571.26 1.29 1.075 1.597 1.811a3.493 3.493 0 0 0 1.897 1.897c.736.307 1.536.992 1.777 1.522.242.53 1.095 1.275 1.897 1.655.802.381 1.623 1.124 1.824 1.652.549 1.446-.669 1.41 43.793 1.291l41.6-.112-42.054-.098-42.054-.098-.668-1.019c-.367-.561-1.216-1.353-1.886-1.76-.67-.408-1.548-1.283-1.951-1.946s-1.238-1.448-1.856-1.744c-.618-.296-1.36-1.032-1.65-1.636-.289-.604-1.053-1.37-1.697-1.703-.644-.333-1.437-1.121-1.763-1.751-.325-.629-1.231-1.522-2.013-1.983-.781-.461-1.59-1.284-1.797-1.829-.207-.545-.921-1.272-1.587-1.617-.666-.344-1.484-1.154-1.818-1.8-.334-.647-1.221-1.466-1.971-1.822-.825-.392-1.461-1.038-1.612-1.639-.137-.549-.876-1.363-1.651-1.82-.77-.455-1.673-1.353-2.006-1.996-.332-.643-1.05-1.339-1.595-1.546-.545-.207-1.368-1.016-1.829-1.797-.461-.782-1.354-1.688-1.983-2.013-.63-.326-1.43-1.143-1.778-1.816-.348-.672-1.131-1.396-1.74-1.609-.662-.23-1.376-.947-1.772-1.779-.366-.766-1.12-1.566-1.677-1.778-.556-.212-1.394-1.032-1.86-1.823-.467-.791-1.277-1.601-1.8-1.8-.524-.199-1.324-.993-1.779-1.764-.455-.771-1.293-1.629-1.862-1.906-.569-.277-1.326-1.035-1.684-1.683-.357-.649-1.17-1.468-1.807-1.821s-1.45-1.172-1.807-1.821c-.358-.648-1.133-1.414-1.723-1.701-.59-.288-1.336-1.031-1.657-1.652-.321-.622-1.223-1.507-2.005-1.968-.781-.461-1.584-1.27-1.785-1.797-.201-.528-.999-1.351-1.773-1.83-.775-.479-1.522-1.229-1.661-1.666-.139-.437-.965-1.245-1.836-1.795-.871-.55-1.744-1.42-1.939-1.934-.196-.514-.968-1.313-1.716-1.776-.748-.462-1.564-1.286-1.812-1.831-.248-.545-.996-1.272-1.662-1.617-.666-.344-1.492-1.17-1.836-1.836-.345-.666-1.072-1.414-1.617-1.662-.545-.248-1.364-1.055-1.819-1.792-.456-.738-1.349-1.61-1.984-1.938-.635-.329-1.431-1.131-1.768-1.784-.337-.653-1.147-1.463-1.8-1.8-.653-.337-1.459-1.14-1.792-1.784-.333-.644-1.099-1.408-1.703-1.697-.604-.29-1.342-1.036-1.641-1.659-.299-.624-1.153-1.494-1.899-1.934-.747-.44-1.584-1.266-1.861-1.835-.277-.569-1.044-1.33-1.704-1.691-.66-.361-1.441-1.151-1.735-1.755-.294-.605-1.077-1.429-1.74-1.832s-1.535-1.275-1.938-1.938-1.227-1.446-1.832-1.74c-.604-.294-1.381-1.037-1.727-1.65-.345-.614-1.138-1.446-1.762-1.851-.624-.404-1.479-1.302-1.9-1.994-.422-.693-1.19-1.421-1.708-1.618-.517-.197-1.323-1.005-1.79-1.796-.466-.791-1.294-1.608-1.839-1.815-.545-.207-1.277-.931-1.628-1.609-.35-.678-1.252-1.525-2.003-1.884-.808-.385-1.524-1.104-1.752-1.759-.213-.609-.937-1.392-1.609-1.74-.673-.348-1.497-1.161-1.831-1.807-.334-.647-1.225-1.468-1.979-1.826-.832-.395-1.528-1.1-1.769-1.793-.219-.628-.949-1.426-1.621-1.774-.673-.348-1.501-1.169-1.84-1.824-.339-.656-1.217-1.444-1.952-1.751-.886-.37-1.483-.978-1.771-1.803-.252-.723-.856-1.406-1.439-1.628-.553-.21-1.456-1.096-2.006-1.968-.6-.949-1.368-1.638-1.914-1.715-.599-.086-1.156-.649-1.623-1.644-.398-.847-1.151-1.68-1.711-1.893-.551-.21-1.378-1.02-1.839-1.802-.469-.795-1.428-1.667-2.176-1.979-.851-.356-1.43-.926-1.591-1.569-.139-.556-.855-1.365-1.589-1.799-.735-.433-1.612-1.321-1.949-1.972-.344-.665-1.152-1.373-1.84-1.613-.818-.285-1.371-.838-1.656-1.656-.238-.684-.947-1.496-1.602-1.835-.646-.334-1.52-1.176-1.943-1.871-.423-.695-1.36-1.542-2.082-1.883-.798-.375-1.363-.964-1.44-1.499-.069-.485-.729-1.255-1.468-1.711-.738-.456-1.707-1.448-2.153-2.204-.46-.78-1.258-1.487-1.846-1.634-.667-.167-1.233-.732-1.59-1.586-.305-.73-1.098-1.608-1.763-1.952-1.773-.917-4.19-4.775-4.521-7.216-.258-1.901-.268-1.869-.184.588m257.128-.7c.121 1.667.176 1.727 2.89 3.1 2.392 1.21 2.962 1.72 4.2 3.76 1.098 1.809 1.9 2.606 3.433 3.41 1.381.724 2.4 1.665 3.292 3.039 1.415 2.18 2.918 3.634 4.807 4.65.673.363 1.87 1.67 2.66 2.903a11.847 11.847 0 0 0 3.63 3.649 11.82 11.82 0 0 1 3.6 3.6 11.87 11.87 0 0 0 3.57 3.58c1.401.896 2.708 2.201 3.703 3.697 1.054 1.584 2.188 2.69 3.602 3.512 1.235.718 2.308 1.704 2.672 2.453.949 1.962 2.87 3.933 4.854 4.984 1 .53 1.918 1.277 2.04 1.66.477 1.499 3.326 4.555 5.094 5.464 1.022.526 1.959 1.272 2.082 1.657.516 1.626 2.742 4.059 4.751 5.193 1.438.811 2.329 1.631 2.672 2.458.655 1.583 3.232 4.142 5.162 5.126.846.432 1.7 1.258 1.967 1.904.643 1.552 3.342 4.267 5.045 5.075.767.365 1.674 1.202 2.015 1.861.905 1.751 3.96 4.713 5.54 5.373.753.315 1.462.761 1.575.992.114.231.165.191.113-.09-.051-.28-.713-.824-1.47-1.208-1.612-.818-5.576-4.879-5.576-5.712 0-.316-.692-.927-1.539-1.359-1.493-.762-5.661-4.927-5.661-5.658 0-.2-.675-.79-1.5-1.311-2.122-1.342-5.249-4.521-5.524-5.616-.132-.527-.815-1.203-1.587-1.57-2.021-.965-4.363-3.244-5.17-5.033-.441-.978-1.145-1.764-1.837-2.05-1.531-.635-4.546-3.507-5.348-5.095-.361-.716-1.415-1.781-2.342-2.366-2.141-1.351-3.477-2.691-4.841-4.85-.594-.942-1.489-1.868-1.988-2.058-1.454-.553-3.506-2.464-4.741-4.416-.629-.994-2.078-2.438-3.219-3.208-1.142-.77-2.656-2.21-3.365-3.2-1.613-2.252-2.286-2.925-4.538-4.538-.99-.709-2.43-2.223-3.2-3.365-.77-1.141-2.214-2.59-3.208-3.219-1.915-1.211-3.648-3.053-4.593-4.88-.315-.609-1.53-1.647-2.7-2.307-1.923-1.086-3.194-2.512-4.535-5.091-.334-.643-2.992-2.245-5.144-3.102-.209-.083-.364-.904-.343-1.825.026-1.211-.123-1.673-.543-1.673-.435 0-.549.425-.457 1.7m85.14 84.016c-.009.174.325.986.743 1.806.747 1.463.747 1.506 0 2.428-.418.516-.757 1.144-.753 1.394.003.251.381-.129.839-.844.507-.792 1.169-1.306 1.693-1.314.833-.014.829-.032-.102-.548-.529-.293-1.287-1.142-1.683-1.886-.396-.743-.728-1.21-.737-1.036m-.93 7.316c-.537.717-.569.898-.131.729.32-.122.69-.505.822-.849.374-.975.091-.926-.691.12m-1.706 1.274c-.231.162-.821.868-1.311 1.57-.49.702-1.237 1.387-1.661 1.521-.423.134-1.156.869-1.628 1.633s-1.359 1.648-1.971 1.965c-.612.316-1.226.869-1.363 1.227-.166.432.165.302.982-.385.678-.57 1.358-1.037 1.511-1.037.153 0 .61-.617 1.016-1.371.407-.754 1.258-1.586 1.891-1.849.634-.262 1.153-.621 1.153-.798 0-.176.466-.874 1.036-1.551 1.038-1.234 1.127-1.473.345-.925m-10.272 10.392c-.599.372-1.194.947-1.322 1.28-.152.395.086.315.691-.233.507-.46 1.282-1.035 1.722-1.278.44-.244.62-.443.4-.444-.22-.001-.891.303-1.491.675m-1.909 2.344c0 .207-.619.71-1.377 1.117-.757.408-1.477 1.006-1.601 1.328-.135.352.235.211.923-.35.631-.515 1.487-1.141 1.901-1.39.415-.249.619-.594.454-.767-.165-.172-.3-.144-.3.062m-3.6 3.709c0 .194-.557.582-1.237.864-.716.297-1.501 1.066-1.863 1.827-.346.723-1.146 1.528-1.782 1.792-.636.263-1.428 1.006-1.762 1.65-.333.645-1.196 1.521-1.918 1.946-.721.426-1.516 1.224-1.767 1.773-.25.549-1.016 1.34-1.703 1.758-.686.417-1.582 1.308-1.99 1.98-.409.671-1.256 1.485-1.882 1.81-.627.324-1.352 1.053-1.61 1.62-.258.567-1.009 1.359-1.668 1.76-1.232.749-3.573 3.78-2.644 3.424.285-.11.718-.64.964-1.178.245-.538 1.007-1.32 1.694-1.738.686-.417 1.582-1.308 1.99-1.98.409-.671 1.256-1.485 1.882-1.81.627-.324 1.352-1.053 1.61-1.62.258-.567 1.031-1.372 1.718-1.79.686-.417 1.582-1.308 1.99-1.98.409-.671 1.256-1.485 1.882-1.81.627-.324 1.352-1.053 1.61-1.62.258-.567 1.031-1.372 1.718-1.79.686-.417 1.582-1.308 1.99-1.98.409-.671 1.291-1.504 1.96-1.85 1.036-.535 1.667-1.409 1.018-1.409-.11 0-.2.158-.2.351m-23.476 22.764c-.799.508-2.529 3.262-1.896 3.019.315-.121.572-.367.572-.546 0-.18.466-.88 1.036-1.557 1.062-1.263 1.119-1.445.288-.916m-4.108 4.16c-.449.482-.816 1.009-.816 1.172 0 .163-.283.579-.629.924-.345.346-.442.629-.214.629s.624-.405.879-.9.833-1.305 1.284-1.8c.451-.495.705-.9.565-.9-.139 0-.621.394-1.069.875m-3.018 3.031c-.825.603-2.699 3.395-2.159 3.216.308-.102.757-.575.997-1.051.239-.476.762-1.227 1.162-1.668.735-.813.735-1.034 0-.497m-3.617 3.6c-.231.162-.801.84-1.267 1.508-.465.668-1.302 1.459-1.859 1.757-.557.298-1.122.827-1.256 1.176-.176.459.012.404.679-.197.507-.457 1.241-.944 1.631-1.081.39-.138.822-.57.96-.96.137-.39.615-1.114 1.06-1.609.813-.903.834-1.142.052-.594m-6.597 6.948c-.981.891-1.223 1.199-.538.683.686-.515 1.586-1.141 2-1.39.415-.249.657-.557.538-.683-.119-.127-1.019.499-2 1.39m-5.584 5.831c0 .23-.5.625-1.111.878s-1.355.852-1.654 1.33c-.506.81-.461.802.657-.112.661-.54 1.54-1.185 1.954-1.434.415-.249.619-.594.454-.767-.165-.172-.3-.125-.3.105m-3.6 3.6c0 .23-.5.625-1.111.878s-1.355.852-1.654 1.33c-.506.81-.461.802.657-.112.661-.54 1.54-1.185 1.954-1.434.415-.249.619-.594.454-.767-.165-.172-.3-.125-.3.105m-3.603 3.548c-.001.202-.546.677-1.211 1.055-.665.379-1.505 1.203-1.866 1.832-.361.629-1.171 1.439-1.8 1.8s-1.453 1.198-1.832 1.86c-.378.662-1.19 1.412-1.803 1.666-.614.255-1.316.838-1.561 1.295-.463.865 1.401-.393 2.876-1.942.33-.346 1.088-1.118 1.685-1.714l1.8-1.8a98.276 98.276 0 0 0 1.73-1.8c.559-.597 1.369-1.289 1.8-1.538.432-.249.65-.594.485-.767-.165-.172-.301-.148-.303.053m-11.083 11.333c-.266.426-.895.853-1.399.95-.816.156-.826.181-.091.23 1.02.067 2.34-.853 2.13-1.485-.095-.285-.346-.166-.64.305" fill="#d4d4d4"></path>
        <path d="M29.2 221.52c0 2.325 2.456 6.475 4.438 7.5.674.348 1.474 1.229 1.779 1.96.357.854.923 1.419 1.59 1.586.588.147 1.386.854 1.846 1.634.446.756 1.415 1.748 2.153 2.204.739.456 1.399 1.226 1.468 1.711.077.535.642 1.124 1.44 1.499.722.341 1.659 1.188 2.082 1.883.423.695 1.297 1.537 1.943 1.871.655.339 1.364 1.151 1.602 1.835.285.818.838 1.371 1.656 1.656.688.24 1.496.948 1.84 1.613.337.651 1.214 1.539 1.949 1.972.734.434 1.45 1.243 1.589 1.799.161.643.74 1.213 1.591 1.569.748.312 1.707 1.184 2.176 1.979.461.782 1.288 1.592 1.839 1.802.56.213 1.313 1.046 1.711 1.893.467.995 1.024 1.558 1.623 1.644.546.077 1.314.766 1.914 1.715.55.872 1.439 1.753 1.975 1.956.535.204 1.229.983 1.542 1.731.375.898.981 1.504 1.785 1.784.693.242 1.49.951 1.85 1.647.348.673 1.183 1.508 1.856 1.856.672.348 1.402 1.146 1.621 1.774.241.693.937 1.398 1.769 1.793.754.358 1.645 1.179 1.979 1.826.334.646 1.158 1.459 1.831 1.807.672.348 1.396 1.131 1.609 1.74.228.655.944 1.374 1.752 1.759.751.359 1.653 1.206 2.003 1.884.351.678 1.083 1.402 1.628 1.609.545.207 1.373 1.024 1.839 1.815.467.791 1.273 1.599 1.79 1.796.518.197 1.286.925 1.708 1.618.421.692 1.276 1.59 1.9 1.994.624.405 1.417 1.237 1.762 1.851.346.613 1.123 1.356 1.727 1.65.605.294 1.429 1.077 1.832 1.74s1.275 1.535 1.938 1.938 1.446 1.227 1.74 1.832c.294.604 1.075 1.394 1.735 1.755.66.361 1.427 1.122 1.704 1.691.277.569 1.114 1.395 1.861 1.835.746.44 1.6 1.31 1.899 1.934.299.623 1.037 1.369 1.641 1.659.604.289 1.37 1.053 1.703 1.697.333.644 1.139 1.447 1.792 1.784.653.337 1.463 1.147 1.8 1.8.337.653 1.133 1.455 1.768 1.784.635.328 1.528 1.2 1.984 1.938.455.737 1.274 1.544 1.819 1.792.545.248 1.272.996 1.617 1.662.344.666 1.17 1.492 1.836 1.836.666.345 1.414 1.072 1.662 1.617.248.545 1.064 1.369 1.812 1.831.748.463 1.52 1.262 1.716 1.776.195.514 1.068 1.384 1.939 1.934s1.697 1.358 1.836 1.795c.139.437.886 1.187 1.661 1.666.774.479 1.572 1.302 1.773 1.83.201.527 1.004 1.336 1.785 1.797.782.461 1.684 1.346 2.005 1.968.321.621 1.067 1.364 1.657 1.652.59.287 1.365 1.053 1.723 1.701.357.649 1.17 1.468 1.807 1.821s1.45 1.172 1.807 1.821c.358.648 1.115 1.406 1.684 1.683.569.277 1.407 1.135 1.862 1.906.455.771 1.255 1.565 1.779 1.764.523.199 1.333 1.009 1.8 1.8.466.791 1.304 1.611 1.86 1.823.557.212 1.311 1.012 1.677 1.778.396.832 1.11 1.549 1.772 1.779.609.213 1.392.937 1.74 1.609.348.673 1.148 1.49 1.778 1.816.629.325 1.522 1.231 1.983 2.013.461.781 1.284 1.59 1.829 1.797.545.207 1.263.903 1.595 1.546.333.643 1.236 1.541 2.006 1.996.775.457 1.514 1.271 1.651 1.82.151.601.787 1.247 1.612 1.639.75.356 1.637 1.175 1.971 1.822.334.646 1.152 1.456 1.818 1.8.666.345 1.38 1.072 1.587 1.617.207.545 1.016 1.368 1.797 1.829.782.461 1.688 1.354 2.013 1.983.326.63 1.119 1.418 1.763 1.751.644.333 1.408 1.099 1.697 1.703.29.604 1.036 1.342 1.659 1.641.624.299 1.49 1.147 1.926 1.886.436.738 1.135 1.451 1.554 1.584.419.133 1.266.854 1.883 1.603l1.122 1.361 43.588.056 43.587.057.904-1.595c.497-.877 1.397-1.799 2-2.05.603-.25 1.406-.996 1.784-1.658.379-.662 1.203-1.499 1.832-1.86s1.439-1.171 1.8-1.8 1.18-1.444 1.82-1.812c.64-.367 1.477-1.249 1.859-1.959.383-.71 1.177-1.491 1.765-1.734.588-.244 1.398-1.054 1.8-1.8.402-.747 1.212-1.557 1.8-1.8.588-.244 1.383-1.025 1.766-1.737.384-.712 1.223-1.527 1.865-1.812.642-.284 1.277-.862 1.411-1.285.134-.422 1.036-1.417 2.003-2.21.968-.793 1.856-1.747 1.975-2.12.118-.373.749-.993 1.401-1.379.653-.385 1.493-1.219 1.867-1.852.374-.634 1.095-1.341 1.601-1.571.506-.231 1.331-1.051 1.834-1.824.502-.772 1.37-1.594 1.93-1.828.559-.234 1.341-1.027 1.737-1.764.397-.736 1.155-1.536 1.685-1.778.529-.241 1.304-1 1.722-1.687.417-.686 1.321-1.59 2.007-2.007.687-.418 1.46-1.223 1.718-1.79s.983-1.296 1.61-1.62c.626-.325 1.473-1.139 1.882-1.81.408-.672 1.304-1.563 1.99-1.98.687-.418 1.46-1.223 1.718-1.79s.983-1.296 1.61-1.62c.626-.325 1.473-1.139 1.882-1.81.408-.672 1.291-1.555 1.963-1.963.671-.409 1.49-1.265 1.821-1.904.33-.639 1.133-1.382 1.785-1.652.676-.28 1.398-1.007 1.682-1.693.283-.683 1.067-1.474 1.813-1.829.722-.345 1.517-1.117 1.765-1.716s1.061-1.418 1.808-1.82c.746-.402 1.556-1.212 1.8-1.8.243-.588 1.053-1.398 1.8-1.8.746-.402 1.569-1.242 1.827-1.866.259-.625.968-1.393 1.576-1.707.607-.314 1.478-1.175 1.934-1.913.455-.737 1.266-1.54 1.8-1.783.535-.244 1.275-.956 1.645-1.582.37-.626 1.2-1.441 1.846-1.812.69-.396 1.486-1.402 1.932-2.443.417-.973.941-1.883 1.164-2.02.806-.498-1.687-5.084-3.083-5.671-1.499-.63-4.557-3.629-5.438-5.332-.341-.659-1.248-1.496-2.015-1.861-1.703-.808-4.402-3.523-5.045-5.075-.267-.646-1.121-1.472-1.967-1.904-1.93-.984-4.507-3.543-5.162-5.126-.343-.827-1.234-1.647-2.672-2.458-2.009-1.134-4.235-3.567-4.751-5.193-.123-.385-1.06-1.131-2.082-1.657-1.768-.909-4.617-3.965-5.094-5.464-.122-.383-1.04-1.13-2.04-1.66-1.984-1.051-3.905-3.022-4.854-4.984-.364-.749-1.437-1.735-2.672-2.453-1.414-.822-2.548-1.928-3.602-3.512-.995-1.496-2.302-2.801-3.703-3.697a11.87 11.87 0 0 1-3.57-3.58 11.82 11.82 0 0 0-3.6-3.6 11.847 11.847 0 0 1-3.63-3.649c-.79-1.233-1.987-2.54-2.66-2.903-1.889-1.016-3.392-2.47-4.807-4.65-.892-1.374-1.911-2.315-3.292-3.039-1.533-.804-2.335-1.601-3.433-3.41-1.238-2.04-1.808-2.55-4.2-3.76l-2.767-1.4-.122-1.9-.122-1.9H29.2v1.92m251.6-1.09 3.4.119-3.4.251-3.4.251 3.3.074 3.3.075v1.138c0 1.449.813 2.142 3.795 3.24 2.951 1.087 3.353 1.41 4.247 3.428.905 2.041 1.681 2.816 4.137 4.133 1.504.806 2.295 1.603 3.294 3.319 1.012 1.74 1.815 2.541 3.497 3.49 1.697.958 2.481 1.746 3.524 3.542 1.096 1.887 1.773 2.541 3.698 3.571 1.995 1.067 2.528 1.6 3.478 3.48.917 1.812 1.546 2.466 3.426 3.563 1.772 1.033 2.635 1.889 3.737 3.705 1.138 1.875 1.899 2.613 3.691 3.577 1.87 1.006 2.469 1.609 3.494 3.522 1.062 1.981 1.574 2.479 3.606 3.504 2.086 1.053 2.512 1.481 3.576 3.588 1.059 2.097 1.495 2.537 3.532 3.566 2.016 1.017 2.496 1.496 3.624 3.612 1.119 2.099 1.617 2.6 3.572 3.593 1.941.985 2.465 1.508 3.595 3.583 1.17 2.15 1.591 2.553 3.659 3.503 2.121.973 2.436 1.286 3.401 3.376.955 2.07 1.318 2.436 3.58 3.608 1.981 1.028 2.711 1.673 3.436 3.039 1.345 2.535 2.046 3.207 4.468 4.278 3.573 1.58 4.109 7.879.789 9.275-.785.33-1.49 1.032-1.816 1.807a3.547 3.547 0 0 1-1.801 1.801c-.821.344-1.478 1.032-1.859 1.946-.371.888-.863 1.413-1.323 1.413-.881 0-1.849 1.002-2.419 2.501-.25.658-.718 1.099-1.166 1.099-.894 0-1.861.993-2.434 2.501-.25.658-.718 1.099-1.166 1.099-.894 0-1.861.993-2.434 2.501-.25.658-.718 1.099-1.166 1.099-.894 0-1.861.993-2.434 2.501-.25.658-.718 1.099-1.166 1.099-.852 0-1.858 1.007-2.229 2.23-.139.456-.835 1.086-1.548 1.4-.756.333-1.524 1.09-1.845 1.82-.314.712-1.088 1.486-1.8 1.8-.73.321-1.487 1.089-1.82 1.845-.314.713-.944 1.409-1.4 1.548-1.223.371-2.23 1.377-2.23 2.228 0 .434-.46.942-1.1 1.215-1.608.685-2.5 1.536-2.5 2.386 0 .448-.441.916-1.099 1.166-1.508.573-2.501 1.54-2.501 2.434 0 .448-.441.916-1.099 1.166-1.499.57-2.501 1.538-2.501 2.419 0 .46-.525.952-1.413 1.323-.914.381-1.602 1.038-1.946 1.859a3.547 3.547 0 0 1-1.801 1.801 3.543 3.543 0 0 0-1.8 1.8 3.547 3.547 0 0 1-1.801 1.801c-.821.344-1.478 1.032-1.859 1.946-.385.92-.858 1.413-1.356 1.413-.82 0-2.424 1.753-2.424 2.649 0 .297-.636.806-1.414 1.131-.97.405-1.601 1.036-2.006 2.006-.371.889-.863 1.414-1.323 1.414-.881 0-1.849 1.002-2.419 2.501-.25.658-.718 1.099-1.166 1.099-.85 0-1.701.892-2.386 2.5-.273.64-.781 1.1-1.215 1.1-.851 0-1.857 1.007-2.228 2.23-.139.456-.835 1.086-1.548 1.4-.756.333-1.524 1.09-1.845 1.82-.314.712-1.088 1.486-1.8 1.8-.77.338-1.52 1.127-1.953 2.05l-.703 1.5H244.83c-44.866 0-43.886.032-44.445-1.44-.195-.512-1.081-1.389-1.969-1.95-.889-.561-1.616-1.286-1.616-1.61 0-.324-.727-1.049-1.616-1.61-.888-.561-1.78-1.454-1.982-1.986-.202-.531-.912-1.247-1.578-1.592-.666-.344-1.487-1.159-1.824-1.812-.337-.653-1.147-1.463-1.8-1.8-.653-.337-1.463-1.147-1.8-1.8-.337-.653-1.147-1.463-1.8-1.8-.653-.337-1.463-1.147-1.8-1.8-.337-.653-1.147-1.463-1.8-1.8-.653-.337-1.463-1.147-1.8-1.8-.337-.653-1.147-1.463-1.8-1.8-.653-.337-1.463-1.147-1.8-1.8-.337-.653-1.147-1.463-1.8-1.8-.653-.337-1.463-1.147-1.8-1.8-.337-.653-1.147-1.463-1.8-1.8-.653-.337-1.463-1.147-1.8-1.8-.337-.653-1.147-1.463-1.8-1.8-.653-.337-1.459-1.14-1.792-1.784-.333-.644-1.099-1.408-1.703-1.697-.604-.29-1.342-1.036-1.641-1.659-.299-.624-1.162-1.499-1.918-1.945-.756-.446-1.647-1.337-1.98-1.98-.332-.643-1.05-1.339-1.595-1.546-.545-.207-1.347-.981-1.783-1.72-.436-.738-1.235-1.544-1.776-1.791-.54-.246-1.442-1.174-2.002-2.063-.561-.888-1.286-1.615-1.61-1.615-.324 0-1.037-.707-1.582-1.572-.546-.865-1.492-1.811-2.102-2.104-.61-.292-1.345-1.025-1.635-1.629-.289-.604-1.034-1.361-1.655-1.682-.622-.321-1.507-1.223-1.968-2.005-.461-.781-1.284-1.59-1.829-1.797-.545-.207-1.272-.921-1.617-1.587-.344-.666-1.159-1.487-1.812-1.824-.653-.337-1.463-1.147-1.8-1.8-.337-.653-1.147-1.463-1.8-1.8-.653-.337-1.463-1.147-1.8-1.8-.337-.653-1.147-1.463-1.8-1.8-.653-.337-1.463-1.147-1.8-1.8-.337-.653-1.147-1.463-1.8-1.8-.653-.337-1.463-1.147-1.8-1.8-.337-.653-1.158-1.468-1.824-1.812-.666-.345-1.38-1.072-1.587-1.617-.207-.545-1.016-1.368-1.797-1.829-.782-.461-1.688-1.354-2.013-1.983-.326-.63-1.137-1.427-1.803-1.771-.666-.345-1.38-1.072-1.587-1.617-.207-.545-1.008-1.363-1.779-1.818-.771-.455-1.629-1.293-1.906-1.862-.277-.569-1.035-1.326-1.683-1.684-.649-.357-1.468-1.17-1.821-1.807s-1.163-1.447-1.8-1.8-1.447-1.163-1.8-1.8-1.172-1.45-1.821-1.807c-.648-.358-1.414-1.133-1.701-1.723-.288-.59-1.05-1.345-1.694-1.678-.644-.333-1.447-1.139-1.784-1.792-.337-.653-1.147-1.463-1.8-1.8-.653-.337-1.463-1.147-1.8-1.8-.337-.653-1.147-1.463-1.8-1.8-.653-.337-1.463-1.147-1.8-1.8-.337-.653-1.147-1.463-1.8-1.8-.653-.337-1.463-1.147-1.8-1.8-.337-.653-1.147-1.463-1.8-1.8-.653-.337-1.463-1.147-1.8-1.8-.337-.653-1.147-1.463-1.8-1.8-.653-.337-1.463-1.147-1.8-1.8-.337-.653-1.147-1.463-1.8-1.8-.653-.337-1.463-1.147-1.8-1.8-.337-.653-1.147-1.463-1.8-1.8-.653-.337-1.463-1.147-1.8-1.8-.337-.653-1.147-1.463-1.8-1.8-.653-.337-1.468-1.158-1.812-1.824-.345-.666-1.072-1.38-1.617-1.587-.545-.207-1.373-1.024-1.839-1.815-.467-.791-1.273-1.599-1.79-1.796-.518-.197-1.284-.921-1.702-1.608-.418-.688-1.302-1.58-1.965-1.983s-1.448-1.238-1.744-1.856c-.296-.618-1.044-1.366-1.662-1.662-.618-.296-1.453-1.081-1.856-1.744s-1.282-1.539-1.954-1.947c-.671-.409-1.49-1.265-1.821-1.904-.33-.639-1.133-1.382-1.785-1.652-.669-.277-1.398-1.006-1.675-1.675-.27-.652-1.002-1.449-1.628-1.773-.625-.323-1.413-1.121-1.75-1.774-.337-.653-1.147-1.463-1.8-1.8-.653-.337-1.453-1.129-1.779-1.759-.325-.629-1.218-1.514-1.984-1.966-1.02-.602-1.508-1.254-1.828-2.441-.241-.895-.801-1.815-1.25-2.056-.73-.39-.994-2.129-.49-3.226.11-.239 243.218-.163 250.131.078m-41.955.653c7.216.123 7.903.197 8.562.925.95 1.049 17.806 1.21 19.164.183 1.188-.899 1.506-.879-17.571-1.066-9.9-.097-14.47-.116-10.155-.042m29.855.006c.715.089 1.885.089 2.6 0 .715-.088.13-.161-1.3-.161-1.43 0-2.015.073-1.3.161" fill="#dcdcdc"></path>
      </g>
    </svg>
  </svg>
</svg>