<?xml version="1.0" encoding="utf-8"?>
<!-- Generator: Adobe Illustrator 25.2.1, SVG Export Plug-In . SVG Version: 6.00 Build 0)  -->
<svg version="1.1" id="Layer_1" xmlns="http://www.w3.org/2000/svg" xmlns:xlink="http://www.w3.org/1999/xlink" x="0px" y="0px"
	 viewBox="0 0 3000 3000" style="enable-background:new 0 0 3000 3000;" xml:space="preserve">
<style type="text/css">
	.st0{fill:#202020;}
	.st1{fill:#1795D2;}
	.st2{fill:#FFFFFF;}
</style>
<g>
	<g>
		<g>
			<g>
				<g>
					<path class="st0" d="M404.03,1440.23l568.52-568.52c33.01-33.01,86.52-33.01,119.53,0l568.52,568.52
						c33.01,33.01,33.01,86.52,0,119.53l-568.52,568.52c-33.01,33.01-86.52,33.01-119.53,0l-568.52-568.52
						C371.02,1526.75,371.02,1473.24,404.03,1440.23z"/>
				</g>
				<g>
					<path class="st0" d="M298.18,2735.72l1175.96-1175.96c33.01-33.01,33.01-86.52,0-119.53L298.18,264.28
						C244.94,211.04,282.65,120,357.95,120h988.79c22.42,0,43.91,8.9,59.76,24.75l1295.49,1295.47c33.01,33.01,33.01,86.52,0,119.53
						L1406.5,2855.24c-15.85,15.85-37.35,24.76-59.76,24.76H357.94C282.65,2880,244.94,2788.96,298.18,2735.72z"/>
				</g>
			</g>
			
				<rect x="677.65" y="1145.32" transform="matrix(0.7071 -0.7071 0.7071 0.7071 -758.292 1169.2996)" class="st1" width="709.34" height="709.34"/>
			<polygon class="st2" points="1327.14,251.85 472.22,251.85 1720.36,1499.99 472.22,2748.14 1327.14,2748.14 2575.28,1499.99 			
				"/>
		</g>
	</g>
</g>
</svg>
