<svg xmlns="http://www.w3.org/2000/svg" viewBox="0 0 3000 3000" style="enable-background:new 0 0 3000 3000" xml:space="preserve"><path d="M2701.987 1440.23 1406.497 144.76a84.527 84.527 0 0 0-59.76-24.76h-988.79c-75.3 0-113.01 91.04-59.77 144.28l640.9 640.9-535.05 535.05c-33.01 33.01-33.01 86.52 0 119.53l535.05 535.05-640.9 640.91c-53.24 53.24-15.53 144.28 59.76 144.28h988.8c22.41 0 43.91-8.91 59.76-24.76l1295.49-1295.48c33.01-33.01 33.01-86.52 0-119.53zm-2171.25 59.76 501.58-501.58 501.58 501.58-501.58 501.58-501.58-501.58zm796.4 1248.15h-854.92l1248.14-1248.15L472.217 251.85h854.92l1248.14 1248.14-1248.14 1248.15z" style="fill:#fff"/></svg>