<?xml version="1.0" encoding="UTF-8" standalone="no"?>
<!DOCTYPE svg PUBLIC "-//W3C//DTD SVG 1.1//EN" "http://www.w3.org/Graphics/SVG/1.1/DTD/svg11.dtd">
<svg width="100%" height="100%" viewBox="0 0 593 228" version="1.1" xmlns="http://www.w3.org/2000/svg" xmlns:xlink="http://www.w3.org/1999/xlink" xml:space="preserve" xmlns:serif="http://www.serif.com/" style="fill-rule:evenodd;clip-rule:evenodd;stroke-linejoin:round;stroke-miterlimit:2;">
    <g transform="matrix(1,0,0,1,-87.6016,-530.556)">
        <g id="Padded-Mono" serif:id="Padded Mono" transform="matrix(0.871234,0,0,1,87.6016,530.556)">
            <rect x="0" y="0" width="680.315" height="227.87" style="fill:none;"/>
            <g id="Logo" transform="matrix(1.09287,0,0,0.952145,-24.7035,5.45237)">
                <g transform="matrix(0.852233,0,0,0.852233,50.2642,16.8358)">
                    <g id="path3221" transform="matrix(0.264583,0,0,0.264583,0,0)">
                        <path d="M350.516,315.742C231.279,349.916 296.333,367.837 351.634,316.03L350.516,315.742ZM375.325,322.07C359.749,339.897 339.814,353.989 316.788,362.602C289.626,372.761 260.45,374.497 232.884,368.205L208.346,439.625L126.994,459.351C112.549,462.547 103.43,476.846 106.626,491.291C109.822,505.735 124.121,514.855 138.565,511.659L235.121,487.936C244.144,485.718 251.283,479.406 254.077,471.227L260.505,452.408L294.327,549.345L202.168,634.612C199.912,636.699 198.03,639.237 196.599,642.075L122.942,788.136C115.037,803.618 121.18,822.579 136.661,830.484C152.143,838.39 171.104,832.247 179.01,816.765L247.971,681.987L373.011,566.093L408.799,689.394C413.202,704.565 427.66,714.062 442.892,712.276L490.549,706.69L490.549,643.287L464.855,646.377L422.08,494.43L381.692,379.001L424.511,390.002L438.634,474.382C441.258,488.942 455.184,498.62 469.743,495.997C484.303,493.373 493.981,479.441 491.358,464.882L474.776,364.368C473.024,353.749 465.653,345.124 455.869,342.627L375.325,322.07Z" style="fill:white;fill-rule:nonzero;"/>
                    </g>
                    <g id="path3223" transform="matrix(1,0,0,1,-939.169,-71.2814)">
                        <path d="M1000.98,153.724L1020.8,146.276L1024.26,125.385L1007.9,111.941L988.075,119.388L984.613,140.28L1000.98,153.724Z" style="fill:white;fill-rule:nonzero;"/>
                    </g>
                    <g id="path3231" transform="matrix(1,0,0,1,-939.169,-71.2814)">
                        <rect x="1071.91" y="77.408" width="4.693" height="205.481" style="fill:white;fill-rule:nonzero;"/>
                    </g>
                    <g id="path3233" transform="matrix(1,0,0,1,-939.169,-71.2814)">
                        <path d="M1068.96,91.192L1033.62,104.409C1023.67,95.321 1009.46,92.575 996.83,97.297C986.162,101.287 978.02,110.101 974.887,121.051L1008.31,108.55L1027.34,124.228L1023.27,148.54L989.847,161.043C999.397,167.248 1011.33,168.555 1021.99,164.566C1034.62,159.843 1043.54,148.448 1045.09,135.058L1068.96,126.125L1068.96,91.192Z" style="fill:white;fill-rule:nonzero;"/>
                    </g>
                </g>
                <g transform="matrix(0.852233,0,0,0.852233,-750.127,-43.9125)">
                    <path id="rect18005" d="M1534.48,111.119C1518.18,111.119 1504.25,119.744 1504.25,135.426L1504.25,138.468L1525.81,138.468L1525.81,135.426C1525.81,129.265 1530.54,127.696 1534.48,127.696C1540,127.696 1542.9,130.721 1542.9,135.09C1542.9,138.45 1541.58,140.465 1538.16,143.602L1504.25,174.967L1504.25,191.544L1564.45,191.544L1564.45,171.924L1533.91,171.924L1552.89,154.803C1560.38,148.082 1564.45,143.603 1564.45,135.202C1564.45,120.192 1551.83,111.119 1534.48,111.119ZM1479.41,191.545L1479.41,177.655L1443.23,177.655L1443.23,111.79L1427.66,111.79L1427.66,191.545L1479.41,191.545ZM1419,191.545L1389.88,111.79L1377.67,111.79L1348.66,191.545L1364.9,191.545L1369.71,177.431L1398.05,177.431L1402.76,191.545L1419,191.545ZM1393.91,164.325L1374.08,164.325L1384.16,135.313L1393.91,164.325ZM1352.65,125.68L1352.65,111.79L1295.41,111.79L1295.41,125.68L1316.25,125.68L1316.25,191.545L1331.82,191.545L1331.82,125.68L1352.65,125.68ZM1290.86,191.545L1273.05,157.156C1280.78,154.356 1287.61,147.411 1287.61,136.209C1287.61,122.88 1277.98,111.79 1261.73,111.79L1230.48,111.79L1230.48,191.545L1246.05,191.545L1246.05,159.732L1257.25,159.732L1272.82,191.545L1290.86,191.545ZM1272.04,136.209C1272.04,142.37 1267.56,146.739 1260.72,146.739L1246.05,146.739L1246.05,125.68L1260.72,125.68C1267.56,125.68 1272.04,130.049 1272.04,136.209ZM1216.96,151.667C1216.96,137.89 1217.08,127.92 1209.01,119.855C1203.41,114.255 1196.58,111.118 1187.5,111.118C1178.43,111.118 1171.49,114.255 1165.88,119.855C1157.82,127.92 1158.04,137.89 1158.04,151.667C1158.04,165.445 1157.82,175.414 1165.88,183.48C1171.49,189.08 1178.43,192.217 1187.5,192.217C1196.58,192.217 1203.41,189.08 1209.01,183.48C1217.08,175.414 1216.96,165.445 1216.96,151.667ZM1201.39,151.667C1201.39,167.013 1200.5,170.71 1197.47,174.07C1195.23,176.647 1191.76,178.327 1187.5,178.327C1183.25,178.327 1179.66,176.647 1177.42,174.07C1174.4,170.71 1173.61,167.013 1173.61,151.667C1173.61,136.321 1174.4,132.625 1177.42,129.264C1179.66,126.688 1183.25,125.008 1187.5,125.008C1191.76,125.008 1195.23,126.688 1197.47,129.264C1200.5,132.625 1201.39,136.321 1201.39,151.667ZM1150.02,136.657C1150.02,123.104 1140.16,111.79 1123.69,111.79L1092.78,111.79L1092.78,191.545L1108.35,191.545L1108.35,161.525L1123.69,161.525C1140.16,161.525 1150.02,150.211 1150.02,136.657ZM1134.45,136.657C1134.45,143.154 1129.96,147.523 1122.91,147.523L1108.35,147.523L1108.35,125.68L1122.91,125.68C1129.96,125.68 1134.45,130.161 1134.45,136.657Z" style="fill:white;fill-rule:nonzero;"/>
                    <path id="path21275" d="M1564.45,247.665L1564.45,229.125C1564.45,225.952 1563.84,223.224 1561.5,220.885C1559.89,219.271 1557.55,218.324 1554.65,218.324C1551.98,218.324 1549.31,219.327 1547.42,221.331L1547.42,218.658L1540.35,218.658L1540.35,247.665L1547.58,247.665L1547.58,230.128C1547.58,226.175 1550.14,224.838 1552.43,224.838C1554.71,224.838 1557.22,226.175 1557.22,230.128L1557.22,247.665L1564.45,247.665ZM1533.44,233.134C1533.44,227.901 1532.78,224.616 1530.16,221.888C1528.38,219.995 1525.43,218.324 1521.14,218.324C1516.85,218.324 1513.96,219.995 1512.17,221.888C1509.56,224.616 1508.89,227.901 1508.89,233.134C1508.89,238.423 1509.56,241.708 1512.17,244.436C1513.96,246.329 1516.85,247.999 1521.14,247.999C1525.43,247.999 1528.38,246.329 1530.16,244.436C1532.78,241.708 1533.44,238.423 1533.44,233.134ZM1526.2,233.134C1526.2,236.14 1526.04,238.701 1524.54,240.205C1523.7,241.04 1522.59,241.485 1521.14,241.485C1519.69,241.485 1518.63,241.04 1517.8,240.205C1516.3,238.701 1516.13,236.14 1516.13,233.134C1516.13,230.128 1516.3,227.622 1517.8,226.119C1518.63,225.284 1519.69,224.838 1521.14,224.838C1522.59,224.838 1523.7,225.284 1524.54,226.119C1526.04,227.622 1526.2,230.128 1526.2,233.134ZM1502.04,247.665L1502.04,218.658L1494.8,218.658L1494.8,247.665L1502.04,247.665ZM1502.1,213.703L1502.1,207.802L1494.69,207.802L1494.69,213.703L1502.1,213.703ZM1488.24,247.665L1488.24,241.541L1485.62,241.541C1483.89,241.541 1483.11,240.594 1483.11,238.924L1483.11,225.005L1488.24,225.005L1488.24,219.494L1483.11,219.494L1483.11,210.92L1475.88,210.92L1475.88,219.494L1472.81,219.494L1472.81,225.005L1475.88,225.005L1475.88,239.37C1475.88,243.489 1478.38,247.665 1484.28,247.665L1488.24,247.665ZM1467.13,247.665L1467.13,218.658L1459.9,218.658L1459.9,247.665L1467.13,247.665ZM1467.19,213.703L1467.19,207.802L1459.79,207.802L1459.79,213.703L1467.19,213.703ZM1451.77,247.665L1451.77,208.025L1444.53,208.025L1444.53,221.22C1442.64,219.104 1440.41,218.324 1437.46,218.324C1434.62,218.324 1432,219.327 1430.39,220.941C1427.49,223.836 1427.44,228.791 1427.44,233.134C1427.44,237.477 1427.49,242.487 1430.39,245.382C1432,246.997 1434.68,247.999 1437.52,247.999C1440.58,247.999 1442.69,247.164 1444.7,244.937L1444.7,247.665L1451.77,247.665ZM1444.53,233.134C1444.53,237.866 1443.92,241.485 1439.58,241.485C1435.23,241.485 1434.68,237.866 1434.68,233.134C1434.68,228.402 1435.23,224.838 1439.58,224.838C1443.92,224.838 1444.53,228.402 1444.53,233.134ZM1421.65,247.665L1421.65,240.761L1403.28,240.761L1403.28,231.13L1418.92,231.13L1418.92,224.226L1403.28,224.226L1403.28,214.928L1421.65,214.928L1421.65,208.025L1395.54,208.025L1395.54,247.665L1421.65,247.665ZM1377.78,218.658L1370.15,218.658L1364.36,236.586L1358.35,218.658L1350.72,218.658L1360.63,245.605L1359.4,249.168C1358.68,251.284 1357.84,251.785 1355.79,251.785L1354.11,251.785L1354.11,258.299L1356.95,258.299C1359.35,258.299 1361.52,257.742 1363.19,256.072C1364.08,255.181 1364.75,253.956 1365.36,252.342L1377.78,218.658ZM1347.99,247.665L1347.99,241.541L1345.37,241.541C1343.65,241.541 1342.87,240.594 1342.87,238.924L1342.87,225.005L1347.99,225.005L1347.99,219.494L1342.87,219.494L1342.87,210.92L1335.63,210.92L1335.63,219.494L1332.57,219.494L1332.57,225.005L1335.63,225.005L1335.63,239.37C1335.63,243.489 1338.14,247.665 1344.04,247.665L1347.99,247.665ZM1326.89,247.665L1326.89,218.658L1319.65,218.658L1319.65,247.665L1326.89,247.665ZM1326.94,213.703L1326.94,207.802L1319.54,207.802L1319.54,213.703L1326.94,213.703ZM1311.86,247.665L1311.86,229.125C1311.86,225.952 1311.25,223.224 1308.91,220.885C1307.29,219.271 1304.95,218.324 1302.06,218.324C1299.39,218.324 1296.71,219.327 1294.82,221.331L1294.82,218.658L1287.75,218.658L1287.75,247.665L1294.99,247.665L1294.99,230.128C1294.99,226.175 1297.55,224.838 1299.83,224.838C1302.11,224.838 1304.62,226.175 1304.62,230.128L1304.62,247.665L1311.86,247.665ZM1279.62,247.665L1279.62,218.658L1272.38,218.658L1272.38,236.196C1272.38,240.149 1269.82,241.485 1267.54,241.485C1265.26,241.485 1262.75,240.149 1262.75,236.196L1262.75,218.658L1255.51,218.658L1255.51,237.198C1255.51,240.372 1256.13,243.1 1258.46,245.438C1260.08,247.053 1262.42,247.999 1265.31,247.999C1267.99,247.999 1270.66,246.997 1272.55,244.993L1272.55,247.665L1279.62,247.665ZM1248.05,247.665L1248.05,229.125C1248.05,225.952 1247.22,223.224 1244.88,220.885C1243.27,219.271 1240.65,218.324 1237.75,218.324C1234.13,218.324 1231.52,219.438 1229.07,221.999C1227.23,219.494 1224.62,218.324 1221.39,218.324C1218.71,218.324 1216.04,219.382 1214.15,221.331L1214.15,218.658L1207.08,218.658L1207.08,247.665L1214.32,247.665L1214.32,230.128C1214.32,226.175 1216.88,224.838 1219.16,224.838C1221.44,224.838 1223.95,226.175 1223.95,230.128L1223.95,247.665L1231.18,247.665L1231.18,229.96C1231.18,226.175 1233.8,224.838 1236.03,224.838C1238.31,224.838 1240.82,226.175 1240.82,230.128L1240.82,247.665L1248.05,247.665ZM1199.28,247.665L1199.28,229.125C1199.28,225.952 1198.45,223.224 1196.11,220.885C1194.5,219.271 1191.88,218.324 1188.98,218.324C1185.36,218.324 1182.75,219.438 1180.3,221.999C1178.46,219.494 1175.84,218.324 1172.61,218.324C1169.94,218.324 1167.27,219.382 1165.38,221.331L1165.38,218.658L1158.31,218.658L1158.31,247.665L1165.54,247.665L1165.54,230.128C1165.54,226.175 1168.11,224.838 1170.39,224.838C1172.67,224.838 1175.17,226.175 1175.17,230.128L1175.17,247.665L1182.41,247.665L1182.41,229.96C1182.41,226.175 1185.03,224.838 1187.26,224.838C1189.54,224.838 1192.05,226.175 1192.05,230.128L1192.05,247.665L1199.28,247.665ZM1151.4,233.134C1151.4,227.901 1150.73,224.616 1148.12,221.888C1146.34,219.995 1143.38,218.324 1139.1,218.324C1134.81,218.324 1131.92,219.995 1130.13,221.888C1127.52,224.616 1126.85,227.901 1126.85,233.134C1126.85,238.423 1127.52,241.708 1130.13,244.436C1131.92,246.329 1134.81,247.999 1139.1,247.999C1143.38,247.999 1146.34,246.329 1148.12,244.436C1150.73,241.708 1151.4,238.423 1151.4,233.134ZM1144.16,233.134C1144.16,236.14 1144,238.701 1142.49,240.205C1141.66,241.04 1140.55,241.485 1139.1,241.485C1137.65,241.485 1136.59,241.04 1135.76,240.205C1134.25,238.701 1134.09,236.14 1134.09,233.134C1134.09,230.128 1134.26,227.622 1135.76,226.119C1136.59,225.284 1137.65,224.838 1139.1,224.838C1140.55,224.838 1141.66,225.284 1142.49,226.119C1144,227.622 1144.16,230.128 1144.16,233.134ZM1121.95,235.472L1114.1,235.472C1113.27,238.868 1111.15,241.095 1107.42,241.095C1105.3,241.095 1103.63,240.427 1102.46,239.035C1100.85,237.31 1100.52,235.528 1100.52,227.845C1100.52,220.162 1100.85,218.38 1102.46,216.654C1103.63,215.262 1105.3,214.594 1107.42,214.594C1111.15,214.594 1113.27,216.821 1114.1,220.217L1121.95,220.217C1120.61,212.145 1114.99,207.691 1107.36,207.691C1103.13,207.691 1099.57,209.138 1096.67,212.033C1094.95,213.759 1093.89,215.708 1093.44,217.99C1093,220.217 1092.78,223.502 1092.78,227.845C1092.78,232.187 1093,235.472 1093.44,237.699C1093.89,239.926 1094.95,241.931 1096.67,243.657C1099.57,246.552 1103.13,247.999 1107.36,247.999C1114.93,247.999 1120.61,243.545 1121.95,235.472Z" style="fill:white;fill-rule:nonzero;"/>
                </g>
            </g>
        </g>
    </g>
</svg>