<?xml version="1.0" encoding="UTF-8" standalone="no"?>
<!DOCTYPE svg PUBLIC "-//W3C//DTD SVG 1.1//EN" "http://www.w3.org/Graphics/SVG/1.1/DTD/svg11.dtd">
<svg width="100%" height="100%" viewBox="0 0 228 228" version="1.1" xmlns="http://www.w3.org/2000/svg" xmlns:xlink="http://www.w3.org/1999/xlink" xml:space="preserve" xmlns:serif="http://www.serif.com/" style="fill-rule:evenodd;clip-rule:evenodd;stroke-linejoin:round;stroke-miterlimit:2;">
    <g transform="matrix(1,0,0,1,-724.116,-265.278)">
        <g id="Square" transform="matrix(1,0,0,1,-319.195,265.278)">
            <rect x="1043.31" y="0" width="227.87" height="227.87" style="fill:none;"/>
            <g id="Wallace" transform="matrix(0.890877,0,0,0.890877,126.282,12.4329)">
                <g transform="matrix(0.80738,0,0,0.80738,1065.7,22.3892)">
                    <g id="path3221" transform="matrix(0.264583,0,0,0.264583,0,0)">
                        <path d="M350.516,315.742C231.279,349.916 296.333,367.837 351.634,316.03L350.516,315.742ZM375.325,322.07C359.749,339.897 339.814,353.989 316.788,362.602C289.626,372.761 260.45,374.497 232.884,368.205L208.346,439.625L126.994,459.351C112.549,462.547 103.43,476.846 106.626,491.291C109.822,505.735 124.121,514.855 138.565,511.659L235.121,487.936C244.144,485.718 251.283,479.406 254.077,471.227L260.505,452.408L294.327,549.345L202.168,634.612C199.912,636.699 198.03,639.237 196.599,642.075L122.942,788.136C115.037,803.618 121.18,822.579 136.661,830.484C152.143,838.39 171.104,832.247 179.01,816.765L247.971,681.987L373.011,566.093L408.799,689.394C413.202,704.565 427.66,714.062 442.892,712.276L490.549,706.69L490.549,643.287L464.855,646.377L422.08,494.43L381.692,379.001L424.511,390.002L438.634,474.382C441.258,488.942 455.184,498.62 469.743,495.997C484.303,493.373 493.981,479.441 491.358,464.882L474.776,364.368C473.024,353.749 465.653,345.124 455.869,342.627L375.325,322.07Z" style="fill:rgb(254,122,2);fill-rule:nonzero;"/>
                    </g>
                    <g id="path3223" transform="matrix(1,0,0,1,-939.169,-71.2814)">
                        <path d="M1000.98,153.724L1020.8,146.276L1024.26,125.385L1007.9,111.941L988.075,119.388L984.613,140.28L1000.98,153.724Z" style="fill:rgb(254,122,2);fill-rule:nonzero;"/>
                    </g>
                    <g id="path3231" transform="matrix(1,0,0,1,-939.169,-71.2814)">
                        <rect x="1071.91" y="77.408" width="4.693" height="205.481" style="fill:rgb(254,122,2);fill-rule:nonzero;"/>
                    </g>
                    <g id="path3233" transform="matrix(1,0,0,1,-939.169,-71.2814)">
                        <path d="M1068.96,91.192L1033.62,104.409C1023.67,95.321 1009.46,92.575 996.83,97.297C986.162,101.287 978.02,110.101 974.887,121.051L1008.31,108.55L1027.34,124.228L1023.27,148.54L989.847,161.043C999.397,167.248 1011.33,168.555 1021.99,164.566C1034.62,159.843 1043.54,148.448 1045.09,135.058L1068.96,126.125L1068.96,91.192Z" style="fill:rgb(254,122,2);fill-rule:nonzero;"/>
                    </g>
                </g>
                <g id="g28557" transform="matrix(0.838613,0,0,0.838613,290.046,-44.7583)">
                    <path id="path28553" d="M1091.73,179.915C1103.64,179.915 1116.25,173.434 1116.25,156.97L1116.25,151.015L1102.24,151.015L1102.24,155.043C1102.24,162.75 1097.86,166.779 1091.73,166.779C1085.6,166.779 1081.22,162.75 1081.22,155.043L1081.22,114.114C1081.22,106.407 1085.6,102.379 1091.73,102.379C1097.86,102.379 1102.24,106.407 1102.24,114.114L1102.24,118.143L1116.25,118.143L1116.25,112.187C1116.25,95.723 1103.64,89.242 1091.73,89.242C1079.82,89.242 1067.21,95.723 1067.21,112.187L1067.21,156.97C1067.21,173.434 1079.82,179.915 1091.73,179.915Z" style="fill:white;fill-rule:nonzero;"/>
                    <path id="path28555" d="M1116.25,279.489L1116.25,266.352L1081.22,266.352L1081.22,239.411L1113.63,239.411L1113.63,226.274L1081.22,226.274L1081.22,203.708L1116.25,203.708L1116.25,190.572L1070.71,190.572C1068.61,190.572 1067.21,191.973 1067.21,194.075L1067.21,279.489L1116.25,279.489Z" style="fill:white;fill-rule:nonzero;"/>
                </g>
            </g>
        </g>
    </g>
</svg>
