<?xml version="1.0" encoding="utf-8"?>
<!-- Generator: Adobe Illustrator 28.2.0, SVG Export Plug-In . SVG Version: 6.00 Build 0)  -->
<svg version="1.1" id="Ebene_1" xmlns="http://www.w3.org/2000/svg" xmlns:xlink="http://www.w3.org/1999/xlink" x="0px" y="0px"
	 viewBox="0 0 90.94 129.55" style="enable-background:new 0 0 90.94 129.55;" xml:space="preserve">
<style type="text/css">
	.st0{fill:#FFFFFF;}
	.st1{fill-rule:evenodd;clip-rule:evenodd;fill:#EC6726;}
</style>
<g id="Logo_00000003095499129166098150000008684721280523552656_">
	<g id="Icon_00000140716340568838591020000007209717081622135971_">
		<g>
			<g>
				<path class="st0" d="M90.32,91.52c-1.73,4.66-8.91,2.23-8.91,2.23l-8.35-5.45l-10.04-6.54l-1.13-0.74l-6.13-17.3L39.67,84.24
					c0,0,8.8,8.78,13.53,14.65c0.53,0.66,1,1.27,1.41,1.84c0.81,1.13,1.35,2.06,1.47,2.64c0.82,3.85-1.41,6.65-1.41,6.65l-9.28,10.4
					l-7.92,8.87c-3.92-0.59-8.28-2.32-12.76-6.06l3.68-4.16l0.49-0.56l5.45-6.17l5.16-5.84C27.62,90.03,20.21,86.1,20.21,86.1
					l-5.22,6.57l-5.92,7.47c-1.1-2.63-2.19-5.5-3.28-8.63c-0.87-2.52-1.63-5.38-2.28-8.35l6.24-7.99l22.99-29.44l-13.32-8.7
					l-5.36,4.51l-2.69,2.27l-3.16,2.65L5.89,48.4c0,0-3.01,2.57-5.79,2.11c0.21-4.08,0.81-8.2,1.57-12.01
					c2.74-2.52,6.57-5.98,9.9-8.79l0-0.01c0.48-0.42,0.96-0.81,1.42-1.18c1.76-1.47,3.3-2.64,4.28-3.22c0.4-0.25,0.71-0.4,0.92-0.43
					c2.51-0.4,5.37,0.78,5.37,0.78l37.64,25.14l4.37,2.92l5.65,19.42c0,0,1.05,0.68,2.64,1.69c4.2,2.7,12.09,7.74,13.72,8.64
					C89.85,84.69,92.04,86.85,90.32,91.52z"/>
			</g>
		</g>
		<path class="st1" d="M73.87,74.8c0.01-5.95-0.31-12.91-1.12-19.73c-0.92-7.8-3.11-20.07-6.68-29.27
			c-2.31-5.9-4.07-9.29-5.29-10.83c-1.09-1.4-1.75-1.32-1.44,0.26c0.27,1.3,1.94,4.56,2.99,7.62c1.57,4.6,5.67,16.53,4.08,14.34
			c-0.69-0.97-4.34-11.67-9.59-19.35C51.76,10.45,44.89-0.62,29.47,0.03c-7.53,0.32-17.96,6.75-23.7,23.19
			c-1.02,2.93-2.79,8.63-4.11,15.28c-0.76,3.81-1.36,7.93-1.57,12.01c-0.07,1.01-0.1,2.02-0.1,3.02c-0.01,3.03,0.84,17.4,3.5,29.63
			c0.66,2.97,1.41,5.83,2.28,8.35c1.09,3.13,2.18,6,3.28,8.63c1.82,4.35,3.68,8.02,5.6,11.1c3.34,5.36,6.73,9.23,10.05,12.01
			c4.47,3.74,8.84,5.47,12.76,6.06c2.54,0.38,4.9,0.29,6.98-0.04c0.93-0.21,12.41-2.9,20.04-16.39c1.72-3.03,6.75-12.88,8.56-24.58
			c0.05-0.28,0.09-0.58,0.13-0.87C73.59,84.52,73.86,80.04,73.87,74.8z M57.38,106.07c-3.19,6.99-6.99,10.94-10.42,13.37
			c-0.52,0.38-1.04,0.7-1.56,0.99c-7.56,4.28-14.44,0.46-16.99-1.34c-0.67-0.48-1.05-0.81-1.05-0.81s-0.27-0.65,0.35-0.27
			c0.26,0.15,0.73,0.36,1.19,0.53c0.58,0.22,1.1,0.4,1.1,0.4s8.61,2.93,15.42-4.05c4.39-4.51,7.33-9.79,9.2-14.15
			c2.15-4.97,2.93-8.76,2.94-8.84c0.16-1.62-0.71-1.56-1.08-0.45c-0.47,1.47-1.65,4.38-3.27,7.45c-1.26,2.42-2.8,4.95-4.46,6.92
			c-4.09,4.84-9.06,6.14-9.06,6.14s-2.4,0.76-5.34,0.41l-0.29-0.04c-1.91-0.27-3.81-1.23-5.98-2.49
			c-3.75-2.17-7.48-7.92-10.56-12.59c-0.93-1.41-1.77-2.96-2.53-4.58c-2.59-5.54-4.23-12.06-5.25-17.5
			c-1.22-6.5-1.55-11.47-1.55-11.47s-0.55-8.4,0.02-17.24c0.1-1.71,0.25-3.43,0.45-5.11c0.44-3.67,1.68-8.02,2.91-11.63l0-0.01
			c1.53-4.5,3.02-7.85,2.87-7.22c-0.16,0.71-0.86,3.11-1.45,6.03c-0.18,0.81-0.34,1.66-0.48,2.53c-0.82,4.96-1.22,10.33-1.21,11
			c0.02,0.59,0.04,1.18,0.06,1.76c0.26,6.61,0.94,12.85,1.67,15.23c0.32,1.05,1.54,1.64,1.4-0.42c-0.22-3.43-0.73-10.92-0.38-17.08
			c0.02-0.28,0.03-0.55,0.06-0.83c0.04-0.39,0.16-8.04,3.17-15.41c0.2-0.51,0.41-1.01,0.65-1.51c1.92-4.11,3.85-7.13,5.88-9.1
			c3.18-3.08,6.2-3.81,6.76-3.91c3.01-0.49,6.53,0.04,9.8,2.04c3.36,2.05,6.92,5.98,10.11,10.91c3.4,5.27,6.22,11.94,8.35,18.22
			c1.02,3,1.8,6.04,2.39,8.83c1.37,6.59,1.69,11.77,1.69,11.77s0.68,9.41,0.25,17.12c-0.04,0.71-0.08,1.41-0.14,2.1
			C62.22,92.66,59.98,100.37,57.38,106.07z"/>
		<g>
			<path class="st0" d="M55.02,40.05c-2.31-1.56-4.62-3.12-6.94-4.67c-0.25-0.17-0.33-0.33-0.31-0.63
				c0.4-5.58,0.79-11.16,1.17-16.75c0.02-0.27,0.12-0.4,0.35-0.52c5.02-2.44,10.04-4.89,15.05-7.34c0.28-0.14,0.47-0.14,0.74,0.04
				c4.62,3.13,9.24,6.25,13.87,9.36c0.25,0.17,0.33,0.33,0.31,0.63c-0.4,5.58-0.79,11.16-1.17,16.75c-0.02,0.27-0.12,0.4-0.35,0.52
				c-5.02,2.44-10.04,4.89-15.05,7.34c-0.3,0.15-0.51,0.11-0.77-0.07C59.63,43.15,57.32,41.6,55.02,40.05z"/>
		</g>
		<path class="st0" d="M87.59,83.44C85.34,82.2,71.24,73.1,71.24,73.1l-5.65-19.42l-37.2-24.83L23.53,39.7l9.21,6.02l-7.31,9.36
			l20.11,21.68l10.22-13.04l6.14,17.3l19.51,12.73c0,0,7.18,2.43,8.91-2.23C92.05,86.85,89.85,84.69,87.59,83.44z"/>
	</g>
</g>
</svg>
